<?xml version="1.0" encoding="utf-8"?>
<!-- Generator: Adobe Illustrator 21.1.0, SVG Export Plug-In . SVG Version: 6.00 Build 0)  -->
<svg version="1.1" id="Capa_1" xmlns="http://www.w3.org/2000/svg" xmlns:xlink="http://www.w3.org/1999/xlink" x="0px" y="0px"
	 viewBox="0 0 610.9 91.7" style="enable-background:new 0 0 610.9 91.7;" xml:space="preserve">
<style type="text/css">
	.st0{fill:#B56D59;}
	.st1{fill:#5E4444;}
	.st2{fill:#EB9072;}
	.st3{fill:#664242;}
	.st4{fill:#FF9071;}
</style>
<g>
	<g>
		<g>
			<path class="st0" d="M0,69.6c0.1,0,0.2,0,0.3,0s0.2,0,0.2,0c0.3,0,0.6-0.1,0.8-0.3c0.2-0.2,0.3-0.5,0.3-1v-7h1v6.9
				c0,0.4-0.1,0.8-0.2,1.1C2.3,69.6,2.2,69.9,2,70c-0.2,0.2-0.4,0.3-0.6,0.4s-0.5,0.1-0.8,0.1c-0.1,0-0.2,0-0.3,0s-0.2,0-0.3,0
				C0,70.5,0,69.6,0,69.6z"/>
			<path class="st0" d="M3.8,63.6c0-0.7,0.2-1.3,0.5-1.7s0.9-0.6,1.6-0.6s1.2,0.2,1.6,0.6c0.3,0.4,0.5,1,0.5,1.7v4.7
				C8,69,7.8,69.6,7.5,70s-0.9,0.6-1.6,0.6S4.7,70.4,4.4,70c-0.3-0.4-0.5-1-0.5-1.7v-4.7C3.9,63.6,3.8,63.6,3.8,63.6z M4.9,68.4
				c0,0.4,0.1,0.7,0.3,1c0.2,0.2,0.5,0.3,0.8,0.3c0.4,0,0.6-0.1,0.8-0.3c0.2-0.2,0.3-0.6,0.3-1v-4.8c0-0.4-0.1-0.7-0.3-1
				c-0.2-0.2-0.4-0.3-0.8-0.3s-0.6,0.1-0.8,0.3c-0.2,0.2-0.3,0.6-0.3,1V68.4z"/>
			<path class="st0" d="M11.4,61.4c0.7,0,1.2,0.2,1.6,0.5c0.3,0.4,0.5,0.9,0.5,1.6v0.7c0,0.5-0.1,0.9-0.3,1.2
				c-0.2,0.3-0.5,0.5-0.9,0.7c0.4,0.1,0.7,0.3,0.9,0.7c0.2,0.3,0.3,0.7,0.3,1.2v1.4c0,0.2,0,0.4,0,0.6s0.1,0.4,0.2,0.5h-1
				c-0.1-0.1-0.1-0.3-0.1-0.4c0-0.2,0-0.4,0-0.7V68c0-0.5-0.1-0.9-0.3-1.1s-0.6-0.3-1-0.3h-0.7v3.9h-1v-9.2h1.8V61.4z M11.1,65.7
				c0.4,0,0.7-0.1,1-0.3c0.2-0.2,0.3-0.5,0.3-1v-0.9c0-0.4-0.1-0.7-0.2-0.9c-0.2-0.2-0.4-0.3-0.8-0.3h-1v3.4
				C10.4,65.7,11.1,65.7,11.1,65.7z"/>
			<path class="st0" d="M16.8,61.3c0.7,0,1.2,0.2,1.6,0.6c0.3,0.4,0.5,1,0.5,1.7v0.8h-1v-0.8c0-0.4-0.1-0.7-0.3-1
				c-0.2-0.2-0.4-0.3-0.8-0.3s-0.6,0.1-0.8,0.3c-0.2,0.2-0.3,0.6-0.3,1v4.8c0,0.4,0.1,0.7,0.3,1c0.2,0.2,0.4,0.3,0.8,0.3
				s0.6-0.1,0.8-0.3c0.2-0.2,0.3-0.6,0.3-1v-1.8H17v-0.9h1.9v2.7c0,0.7-0.2,1.3-0.5,1.7c-0.3,0.4-0.9,0.6-1.6,0.6s-1.2-0.2-1.6-0.6
				c-0.3-0.4-0.5-1-0.5-1.7v-4.7c0-0.3,0-0.7,0.1-0.9c0.1-0.3,0.2-0.5,0.4-0.7s0.4-0.4,0.6-0.5C16.2,61.3,16.5,61.3,16.8,61.3z"/>
			<path class="st0" d="M23.4,65.4v0.9h-2.2v3.3h2.7v0.9h-3.8v-9.2h3.8v0.9h-2.7v3.1L23.4,65.4L23.4,65.4z"/>
			<path class="st0" d="M29.7,61.4c0.7,0,1.2,0.2,1.6,0.6c0.3,0.4,0.5,1,0.5,1.7v4.6c0,0.7-0.2,1.3-0.5,1.7
				c-0.3,0.4-0.9,0.6-1.6,0.6h-2.1v-9.2C27.6,61.4,29.7,61.4,29.7,61.4z M29.7,69.6c0.4,0,0.6-0.1,0.8-0.3c0.2-0.2,0.3-0.5,0.3-1
				v-4.7c0-0.4-0.1-0.7-0.3-1c-0.2-0.2-0.5-0.3-0.8-0.3h-1.1v7.3H29.7z"/>
			<path class="st0" d="M33.9,59.5h1l-1.2,1.3H33L33.9,59.5z M33.1,61.4h1v9.2h-1V61.4z"/>
			<path class="st0" d="M36.5,68.7l-0.4,1.8h-0.9l1.8-9.2h1.5l1.8,9.2h-1l-0.4-1.8H36.5z M36.6,67.8h2l-1-5.3L36.6,67.8z"/>
			<path class="st0" d="M45.3,70.5h-4.2v-0.9l3.1-7.3h-3v-0.9h4v0.9L42,69.6h3.1v0.9H45.3z"/>
			<path class="st0" d="M53.2,61.4l-3.6,9.2h-0.9l3.6-9.2C52.3,61.4,53.2,61.4,53.2,61.4z"/>
			<path class="st0" d="M57.6,66.4v4.1h-1v-9.2h1v4.1h2.3v-4.1h1v9.2h-1v-4.1H57.6z"/>
			<path class="st0" d="M63.2,68.4c0,0.4,0.1,0.7,0.3,1c0.2,0.2,0.4,0.3,0.8,0.3s0.6-0.1,0.8-0.3c0.2-0.2,0.3-0.6,0.3-1v-7h1v7
				c0,0.7-0.2,1.3-0.5,1.7c-0.3,0.4-0.9,0.6-1.6,0.6c-0.7,0-1.2-0.2-1.5-0.6s-0.5-1-0.5-1.7v-7h1v7H63.2z"/>
			<path class="st0" d="M69.6,61.3c0.7,0,1.2,0.2,1.6,0.6c0.3,0.4,0.5,1,0.5,1.7v0.8h-1v-0.8c0-0.4-0.1-0.7-0.3-1
				c-0.2-0.2-0.4-0.3-0.8-0.3s-0.6,0.1-0.8,0.3c-0.2,0.2-0.3,0.6-0.3,1v4.8c0,0.4,0.1,0.7,0.3,1c0.2,0.2,0.4,0.3,0.8,0.3
				s0.6-0.1,0.8-0.3c0.2-0.2,0.3-0.6,0.3-1v-1.8h-0.9v-0.9h1.9v2.7c0,0.7-0.2,1.3-0.5,1.7c-0.3,0.4-0.9,0.6-1.6,0.6
				s-1.2-0.2-1.6-0.6c-0.3-0.4-0.5-1-0.5-1.7v-4.7c0-0.3,0-0.7,0.1-0.9c0.1-0.3,0.2-0.5,0.4-0.7c0.2-0.2,0.4-0.4,0.6-0.5
				S69.3,61.3,69.6,61.3z"/>
			<path class="st0" d="M72.9,63.6c0-0.7,0.2-1.3,0.5-1.7s0.9-0.6,1.6-0.6s1.2,0.2,1.6,0.6c0.3,0.4,0.5,1,0.5,1.7v4.7
				c0,0.7-0.2,1.3-0.5,1.7c-0.3,0.4-0.9,0.6-1.6,0.6s-1.2-0.2-1.6-0.6c-0.3-0.4-0.5-1-0.5-1.7V63.6z M73.9,68.4c0,0.4,0.1,0.7,0.3,1
				c0.2,0.2,0.5,0.3,0.8,0.3c0.4,0,0.6-0.1,0.8-0.3c0.2-0.2,0.3-0.6,0.3-1v-4.8c0-0.4-0.1-0.7-0.3-1c-0.2-0.2-0.4-0.3-0.8-0.3
				s-0.6,0.1-0.8,0.3c-0.2,0.2-0.3,0.6-0.3,1V68.4z"/>
			<path class="st0" d="M82.8,61.4c0.7,0,1.2,0.2,1.6,0.5c0.3,0.4,0.5,0.9,0.5,1.6v0.7c0,0.5-0.1,0.9-0.3,1.2
				c-0.2,0.3-0.5,0.5-0.9,0.7c0.4,0.1,0.7,0.3,0.9,0.7c0.2,0.3,0.3,0.7,0.3,1.2v1.4c0,0.2,0,0.4,0,0.6s0.1,0.4,0.2,0.5h-1
				C84,70.4,84,70.2,84,70.1c0-0.2,0-0.4,0-0.7V68c0-0.5-0.1-0.9-0.3-1.1c-0.2-0.2-0.6-0.3-1-0.3H82v3.9h-1v-9.2h1.8V61.4z
				 M82.5,65.7c0.4,0,0.7-0.1,1-0.3c0.2-0.2,0.3-0.5,0.3-1v-0.9c0-0.4-0.1-0.7-0.2-0.9c-0.2-0.2-0.4-0.3-0.8-0.3h-1v3.4
				C81.8,65.7,82.5,65.7,82.5,65.7z"/>
			<path class="st0" d="M86.2,63.6c0-0.7,0.2-1.3,0.5-1.7s0.9-0.6,1.6-0.6s1.2,0.2,1.6,0.6c0.3,0.4,0.5,1,0.5,1.7v4.7
				c0,0.7-0.2,1.3-0.5,1.7c-0.3,0.4-0.9,0.6-1.6,0.6s-1.2-0.2-1.6-0.6c-0.3-0.4-0.5-1-0.5-1.7V63.6z M87.2,68.4c0,0.4,0.1,0.7,0.3,1
				c0.2,0.2,0.5,0.3,0.8,0.3c0.4,0,0.6-0.1,0.8-0.3c0.2-0.2,0.3-0.6,0.3-1v-4.8c0-0.4-0.1-0.7-0.3-1c-0.2-0.2-0.4-0.3-0.8-0.3
				s-0.6,0.1-0.8,0.3c-0.2,0.2-0.3,0.6-0.3,1V68.4z"/>
			<path class="st0" d="M91.4,69.6c0.1,0,0.2,0,0.3,0c0.1,0,0.2,0,0.2,0c0.3,0,0.6-0.1,0.8-0.3c0.2-0.2,0.3-0.5,0.3-1v-7h1v6.9
				c0,0.4-0.1,0.8-0.2,1.1c-0.1,0.3-0.2,0.5-0.4,0.7c-0.2,0.2-0.4,0.3-0.6,0.4s-0.5,0.1-0.8,0.1c-0.1,0-0.2,0-0.3,0
				c-0.1,0-0.2,0-0.3,0V69.6z"/>
			<path class="st0" d="M96.4,68.7L96,70.5h-0.9l1.8-9.2h1.5l1.8,9.2h-1l-0.4-1.8H96.4z M96.5,67.8h2l-1-5.3L96.5,67.8z"/>
			<path class="st0" d="M103.1,61.3c0.7,0,1.2,0.2,1.5,0.6c0.3,0.4,0.5,1,0.5,1.7v0.2h-1v-0.3c0-0.4-0.1-0.7-0.2-1
				c-0.2-0.2-0.4-0.3-0.8-0.3s-0.6,0.1-0.8,0.3c-0.2,0.2-0.2,0.5-0.2,1c0,0.3,0.1,0.6,0.2,0.9c0.2,0.3,0.3,0.5,0.6,0.7
				c0.2,0.2,0.5,0.4,0.7,0.6c0.3,0.2,0.5,0.4,0.7,0.7c0.2,0.2,0.4,0.5,0.6,0.8s0.2,0.7,0.2,1.1c0,0.7-0.2,1.3-0.5,1.7
				c-0.3,0.4-0.9,0.6-1.6,0.6s-1.2-0.2-1.6-0.6s-0.5-1-0.5-1.7v-0.5h1v0.6c0,0.4,0.1,0.7,0.3,1c0.2,0.2,0.4,0.3,0.8,0.3
				s0.6-0.1,0.8-0.3c0.2-0.2,0.3-0.5,0.3-1c0-0.3-0.1-0.6-0.2-0.9c-0.2-0.2-0.3-0.5-0.6-0.7c-0.2-0.2-0.5-0.4-0.7-0.6
				c-0.3-0.2-0.5-0.4-0.7-0.7c-0.2-0.2-0.4-0.5-0.6-0.8s-0.2-0.7-0.2-1.1c0-0.7,0.2-1.3,0.5-1.7C101.9,61.5,102.4,61.3,103.1,61.3z"
				/>
			<path class="st0" d="M112.9,61.4l-3.6,9.2h-0.9l3.6-9.2C112,61.4,112.9,61.4,112.9,61.4z"/>
			<path class="st0" d="M118.5,61.4c0.7,0,1.2,0.2,1.6,0.6c0.3,0.4,0.5,1,0.5,1.7v4.6c0,0.7-0.2,1.3-0.5,1.7
				c-0.3,0.4-0.9,0.6-1.6,0.6h-2.1v-9.2C116.4,61.4,118.5,61.4,118.5,61.4z M118.5,69.6c0.4,0,0.6-0.1,0.8-0.3
				c0.2-0.2,0.3-0.5,0.3-1v-4.7c0-0.4-0.1-0.7-0.3-1c-0.2-0.2-0.5-0.3-0.8-0.3h-1.1v7.3H118.5z"/>
			<path class="st0" d="M122.9,61.4v9.2h-1v-9.2C121.9,61.4,122.9,61.4,122.9,61.4z"/>
			<path class="st0" d="M127.5,65.4v0.9h-2.2v3.3h2.7v0.9h-3.8v-9.2h3.8v0.9h-2.7v3.1L127.5,65.4L127.5,65.4z"/>
			<path class="st0" d="M130.6,70.5v-8.2h-1.7v-0.9h4.4v0.9h-1.7v8.2H130.6z"/>
			<path class="st0" d="M137.6,65.4v0.9h-2.2v3.3h2.7v0.9h-3.8v-9.2h3.8v0.9h-2.7v3.1L137.6,65.4L137.6,65.4z"/>
			<path class="st0" d="M141.4,61.4c0.7,0,1.2,0.2,1.6,0.5c0.3,0.4,0.5,0.9,0.5,1.6v0.7c0,0.5-0.1,0.9-0.3,1.2
				c-0.2,0.3-0.5,0.5-0.9,0.7c0.4,0.1,0.7,0.3,0.9,0.7c0.2,0.3,0.3,0.7,0.3,1.2v1.4c0,0.2,0,0.4,0,0.6s0.1,0.4,0.2,0.5h-1
				c-0.1-0.1-0.1-0.3-0.1-0.4c0-0.2,0-0.4,0-0.7V68c0-0.5-0.1-0.9-0.3-1.1s-0.6-0.3-1-0.3h-0.7v3.9h-1v-9.2h1.8V61.4z M141.2,65.7
				c0.4,0,0.7-0.1,1-0.3c0.2-0.2,0.3-0.5,0.3-1v-0.9c0-0.4-0.1-0.7-0.2-0.9c-0.2-0.2-0.4-0.3-0.8-0.3h-1v3.4
				C140.5,65.7,141.2,65.7,141.2,65.7z"/>
			<path class="st0" d="M149.2,61.3c0.7,0,1.2,0.2,1.5,0.6c0.3,0.4,0.5,1,0.5,1.7v0.2h-1v-0.3c0-0.4-0.1-0.7-0.2-1s-0.4-0.3-0.8-0.3
				c-0.4,0-0.6,0.1-0.8,0.3s-0.2,0.5-0.2,1c0,0.3,0.1,0.6,0.2,0.9c0.2,0.3,0.3,0.5,0.6,0.7c0.2,0.2,0.5,0.4,0.7,0.6
				c0.3,0.2,0.5,0.4,0.7,0.7c0.2,0.2,0.4,0.5,0.6,0.8c0.2,0.3,0.2,0.7,0.2,1.1c0,0.7-0.2,1.3-0.5,1.7c-0.3,0.4-0.9,0.6-1.6,0.6
				c-0.7,0-1.2-0.2-1.6-0.6c-0.3-0.4-0.5-1-0.5-1.7v-0.5h1v0.6c0,0.4,0.1,0.7,0.3,1c0.2,0.2,0.4,0.3,0.8,0.3c0.4,0,0.6-0.1,0.8-0.3
				c0.2-0.2,0.3-0.5,0.3-1c0-0.3-0.1-0.6-0.2-0.9c-0.2-0.2-0.3-0.5-0.6-0.7c-0.2-0.2-0.5-0.4-0.7-0.6c-0.3-0.2-0.5-0.4-0.7-0.7
				c-0.2-0.2-0.4-0.5-0.6-0.8c-0.2-0.3-0.2-0.7-0.2-1.1c0-0.7,0.2-1.3,0.5-1.7C148,61.5,148.5,61.3,149.2,61.3z"/>
			<path class="st0" d="M154.4,61.3c0.7,0,1.2,0.2,1.6,0.6c0.3,0.4,0.5,1,0.5,1.7v0.8h-1v-0.9c0-0.4-0.1-0.7-0.3-1
				c-0.2-0.2-0.4-0.3-0.8-0.3c-0.4,0-0.6,0.1-0.8,0.3s-0.3,0.6-0.3,1v4.8c0,0.4,0.1,0.7,0.3,1c0.2,0.2,0.4,0.3,0.8,0.3
				c0.4,0,0.6-0.1,0.8-0.3c0.2-0.2,0.3-0.6,0.3-1v-1.2h1v1.1c0,0.7-0.2,1.3-0.5,1.7c-0.3,0.4-0.9,0.6-1.6,0.6
				c-0.7,0-1.2-0.2-1.6-0.6c-0.3-0.4-0.5-1-0.5-1.7v-4.7c0-0.3,0-0.7,0.1-0.9c0.1-0.3,0.2-0.5,0.4-0.7s0.4-0.4,0.6-0.5
				S154.1,61.3,154.4,61.3z"/>
			<path class="st0" d="M158.7,66.4v4.1h-1v-9.2h1v4.1h2.3v-4.1h1v9.2h-1v-4.1H158.7z"/>
			<path class="st0" d="M166.8,70.5h-1l-1.5-7.3v7.3h-0.9v-9.2h1.4l1.5,7.3l1.5-7.3h1.4v9.2h-1v-7.4L166.8,70.5z"/>
			<path class="st0" d="M171.6,61.4v9.2h-1v-9.2C170.6,61.4,171.6,61.4,171.6,61.4z"/>
			<path class="st0" d="M174.9,61.3c0.7,0,1.2,0.2,1.6,0.6c0.3,0.4,0.5,1,0.5,1.7v0.8h-1v-0.8c0-0.4-0.1-0.7-0.3-1s-0.4-0.3-0.8-0.3
				c-0.4,0-0.6,0.1-0.8,0.3s-0.3,0.6-0.3,1v4.8c0,0.4,0.1,0.7,0.3,1c0.2,0.2,0.4,0.3,0.8,0.3c0.4,0,0.6-0.1,0.8-0.3
				c0.2-0.2,0.3-0.6,0.3-1v-1.8h-0.9v-0.9h1.9v2.7c0,0.7-0.2,1.3-0.5,1.7c-0.3,0.4-0.9,0.6-1.6,0.6c-0.7,0-1.2-0.2-1.6-0.6
				c-0.3-0.4-0.5-1-0.5-1.7v-4.7c0-0.3,0-0.7,0.1-0.9c0.1-0.3,0.2-0.5,0.4-0.7s0.4-0.4,0.6-0.5C174.3,61.3,174.6,61.3,174.9,61.3z"
				/>
			<path class="st0" d="M181.6,65.4v0.9h-2.2v3.3h2.7v0.9h-3.8v-9.2h3.8v0.9h-2.7v3.1L181.6,65.4L181.6,65.4z"/>
			<path class="st0" d="M183.3,70.5v-9.2h1v8.2h2.6v0.9L183.3,70.5L183.3,70.5z"/>
			<path class="st0" d="M188,63.6c0-0.7,0.2-1.3,0.5-1.7s0.9-0.6,1.6-0.6s1.2,0.2,1.6,0.6s0.5,1,0.5,1.7v4.7c0,0.7-0.2,1.3-0.5,1.7
				c-0.3,0.4-0.9,0.6-1.6,0.6s-1.2-0.2-1.6-0.6c-0.3-0.4-0.5-1-0.5-1.7V63.6z M189,68.4c0,0.4,0.1,0.7,0.3,1
				c0.2,0.2,0.5,0.3,0.8,0.3c0.4,0,0.7-0.1,0.8-0.3c0.2-0.2,0.3-0.6,0.3-1v-4.8c0-0.4-0.1-0.7-0.3-1c-0.2-0.2-0.4-0.3-0.8-0.3
				c-0.4,0-0.6,0.1-0.8,0.3s-0.3,0.6-0.3,1V68.4z"/>
			<path class="st0" d="M195.1,66.6l-0.5,0.9v3.1h-1v-9.2h1v4.4l2.4-4.4h1l-2.3,4.2l2.4,5h-1L195.1,66.6z"/>
		</g>
	</g>
	<g>
		<g>
			<path class="st1" d="M0.2,18.8c0-3.4,0.8-6,2.4-7.8s4-2.7,7.2-2.7S15.4,9.2,17,11s2.4,4.4,2.4,7.8v1.3h-6.2v-1.7
				c0-1.5-0.3-2.6-0.9-3.2c-0.6-0.6-1.4-0.9-2.4-0.9s-1.8,0.3-2.4,0.9c-0.6,0.6-0.9,1.7-0.9,3.2c0,1.4,0.3,2.7,1,3.8
				c0.6,1.1,1.4,2.1,2.4,3.1s2,1.9,3.1,2.9s2.1,2,3.1,3.2s1.7,2.5,2.4,3.9c0.6,1.5,1,3.2,1,5.2c0,3.4-0.8,6-2.5,7.8S13,51,9.8,51
				s-5.7-0.9-7.3-2.7C0.8,46.5,0,43.9,0,40.5V38h6.2v3c0,1.5,0.3,2.6,0.9,3.2C7.7,44.7,8.6,45,9.6,45s1.9-0.3,2.5-0.9
				c0.6-0.6,0.9-1.6,0.9-3.2c0-1.4-0.3-2.7-1-3.8C11.4,36,10.6,35,9.6,34s-2-1.9-3.1-2.9c-1.1-1-2.1-2-3.1-3.2S1.8,25.5,1.1,24
				C0.5,22.5,0.2,20.8,0.2,18.8z"/>
			<path class="st1" d="M30.4,26.4h9v6h-9v12.2h11.3v6H23.9V8.8h17.9v6H30.4V26.4z"/>
			<path class="st1" d="M56.3,8.8c3.4,0,5.9,0.8,7.4,2.4c1.5,1.6,2.3,4,2.3,7.2v1.5c0,2.1-0.3,3.9-1,5.3s-1.7,2.4-3.2,3.1
				c1.8,0.7,3,1.8,3.8,3.3c0.7,1.5,1.1,3.4,1.1,5.6v3.4c0,3.2-0.8,5.7-2.5,7.4c-1.7,1.7-4.2,2.5-7.4,2.5H46.4V8.8H56.3z M53,14.8v11
				h2.6c1.2,0,2.2-0.3,2.9-1c0.7-0.6,1-1.8,1-3.5V19c0-1.5-0.3-2.6-0.8-3.3s-1.4-1-2.5-1H53V14.8z M53,31.8v12.8h3.8
				c1.1,0,2-0.3,2.5-0.9c0.6-0.6,0.9-1.7,0.9-3.2v-3.6c0-1.9-0.3-3.3-1-4s-1.7-1.1-3.2-1.1C56,31.8,53,31.8,53,31.8z"/>
			<path class="st1" d="M92.4,50.5h-6.6L84.7,43h-8l-1.1,7.6h-6l6.7-41.7h9.6L92.4,50.5z M77.5,37.3h6.3l-3.2-21.1L77.5,37.3z"/>
			<path class="st1" d="M95.2,18.8c0-3.4,0.8-6,2.4-7.8s4-2.7,7.2-2.7s5.6,0.9,7.2,2.7s2.4,4.4,2.4,7.8v1.3h-6.2v-1.7
				c0-1.5-0.3-2.6-0.9-3.2c-0.6-0.6-1.4-0.9-2.4-0.9s-1.8,0.3-2.4,0.9c-0.6,0.6-0.9,1.7-0.9,3.2c0,1.4,0.3,2.7,1,3.8
				c0.6,1.1,1.4,2.1,2.4,3.1s2,1.9,3.1,2.9s2.1,2,3.1,3.2s1.7,2.5,2.4,3.9c0.6,1.5,1,3.2,1,5.2c0,3.4-0.8,6-2.5,7.8
				c-1.6,1.8-4.1,2.7-7.3,2.7c-3.2,0-5.7-0.9-7.3-2.7c-1.6-1.8-2.5-4.4-2.5-7.8V38h6.2v3c0,1.5,0.3,2.6,0.9,3.2
				c0.6,0.6,1.4,0.9,2.5,0.9c1,0,1.9-0.3,2.5-0.9c0.6-0.6,0.9-1.6,0.9-3.2c0-1.4-0.3-2.7-1-3.8c-0.6-1.1-1.4-2.1-2.4-3.1
				s-2-1.9-3.1-2.9c-1.1-1-2.1-2-3.1-3.2s-1.7-2.5-2.4-3.9C95.5,22.5,95.2,20.8,95.2,18.8z"/>
			<path class="st1" d="M117,8.8h20.3v6h-6.9v35.8h-6.6V14.8H117V8.8z"/>
			<path class="st1" d="M140.7,8.8h6.6v41.7h-6.6V8.8z"/>
			<path class="st1" d="M173.9,50.5h-6.6l-1.1-7.6h-8l-1.1,7.6h-6l6.7-41.7h9.6L173.9,50.5z M169.4,0l-6.1,6.6h-4.4L163,0H169.4z
				 M158.9,37.3h6.3L162,16.2L158.9,37.3z"/>
			<path class="st1" d="M183.4,20.3v30.2h-5.9V8.8h8.2l6.7,25v-25h5.8v41.7h-6.7L183.4,20.3z"/>
			<path class="st1" d="M232.4,35v5.5c0,3.4-0.8,6-2.5,7.8c-1.6,1.8-4.1,2.7-7.3,2.7s-5.7-0.9-7.3-2.7s-2.5-4.4-2.5-7.8V18.8
				c0-3.4,0.8-6,2.5-7.8c1.6-1.8,4.1-2.7,7.3-2.7s5.7,0.9,7.3,2.7s2.5,4.4,2.5,7.8v4.1h-6.2v-4.5c0-1.5-0.3-2.6-0.9-3.2
				c-0.6-0.6-1.4-0.9-2.5-0.9c-1,0-1.9,0.3-2.5,0.9c-0.6,0.6-0.9,1.7-0.9,3.2v22.5c0,1.5,0.3,2.6,0.9,3.2c0.6,0.6,1.4,0.9,2.5,0.9
				c1,0,1.9-0.3,2.5-0.9c0.6-0.6,0.9-1.6,0.9-3.2v-6L232.4,35L232.4,35z"/>
			<path class="st1" d="M258.2,50.5h-6.6l-1.1-7.6h-8l-1.1,7.6h-6l6.7-41.7h9.6L258.2,50.5z M243.2,37.3h6.3l-3.2-21.1L243.2,37.3z"
				/>
			<path class="st1" d="M261,18.8c0-3.4,0.8-6,2.4-7.8s4-2.7,7.2-2.7s5.6,0.9,7.2,2.7s2.4,4.4,2.4,7.8v1.3H274v-1.7
				c0-1.5-0.3-2.6-0.9-3.2c-0.6-0.6-1.4-0.9-2.4-0.9s-1.8,0.3-2.4,0.9c-0.6,0.6-0.9,1.7-0.9,3.2c0,1.4,0.3,2.7,1,3.8
				c0.6,1.1,1.4,2.1,2.4,3.1s2,1.9,3.1,2.9s2.1,2,3.1,3.2s1.7,2.5,2.4,3.9c0.6,1.5,1,3.2,1,5.2c0,3.4-0.8,6-2.5,7.8
				c-1.6,1.8-4.1,2.7-7.3,2.7c-3.2,0-5.7-0.9-7.3-2.7c-1.6-1.8-2.5-4.4-2.5-7.8V38h6.2v3c0,1.5,0.3,2.6,0.9,3.2
				c0.6,0.6,1.4,0.9,2.5,0.9c1,0,1.9-0.3,2.5-0.9c0.6-0.6,0.9-1.6,0.9-3.2c0-1.4-0.3-2.7-1-3.8c-0.6-1.1-1.4-2.1-2.4-3.1
				s-2-1.9-3.1-2.9c-1.1-1-2.1-2-3.1-3.2s-1.7-2.5-2.4-3.9C261.3,22.5,261,20.8,261,18.8z"/>
			<path class="st1" d="M282.8,8.8h20.3v6h-6.9v35.8h-6.6V14.8h-6.9v-6H282.8z"/>
			<path class="st1" d="M320.2,50.5c-0.1-0.3-0.2-0.5-0.2-0.8c-0.1-0.2-0.1-0.5-0.2-0.9s-0.1-0.8-0.1-1.4c0-0.6,0-1.3,0-2.1v-6.6
				c0-1.9-0.3-3.3-1-4.1s-1.8-1.2-3.3-1.2h-2.3v17h-6.6V8.8h9.9c3.4,0,5.9,0.8,7.4,2.4s2.3,4,2.3,7.2v3.3c0,4.3-1.4,7.1-4.3,8.5
				c1.7,0.7,2.8,1.8,3.4,3.3s0.9,3.4,0.9,5.6v6.4c0,1,0,1.9,0.1,2.7s0.3,1.6,0.6,2.4h-6.6L320.2,50.5L320.2,50.5z M313.1,14.8v12.8
				h2.6c1.2,0,2.2-0.3,2.9-1c0.7-0.6,1-1.8,1-3.5V19c0-1.5-0.3-2.6-0.8-3.3s-1.4-1-2.5-1h-3.2V14.8z"/>
			<path class="st1" d="M330.5,18.8c0-3.4,0.9-6,2.6-7.8s4.2-2.7,7.4-2.7c3.2,0,5.7,0.9,7.4,2.7c1.7,1.8,2.6,4.4,2.6,7.8v21.7
				c0,3.4-0.9,6-2.6,7.8s-4.2,2.7-7.4,2.7c-3.2,0-5.7-0.9-7.4-2.7c-1.7-1.8-2.6-4.4-2.6-7.8V18.8z M337.1,40.9
				c0,1.5,0.3,2.6,0.9,3.2c0.6,0.6,1.4,0.9,2.5,0.9c1,0,1.9-0.3,2.5-0.9c0.6-0.6,0.9-1.7,0.9-3.2V18.4c0-1.5-0.3-2.6-0.9-3.2
				s-1.4-0.9-2.5-0.9c-1,0-1.9,0.3-2.5,0.9c-0.6,0.6-0.9,1.7-0.9,3.2V40.9z"/>
		</g>
	</g>
	<g>
		<path class="st2" d="M223,59.5c1.2,0,2.2,0.2,3.1,0.6c0.9,0.4,1.6,1,2.1,1.7c0.6,0.7,1,1.6,1.2,2.5c0.3,1,0.4,2,0.4,3.2v2.6h-2
			v-2.8c0-0.8-0.1-1.6-0.2-2.4s-0.4-1.4-0.8-1.9c-0.4-0.5-0.9-1-1.5-1.3s-1.3-0.5-2.2-0.5s-1.6,0.2-2.2,0.5s-1.1,0.7-1.5,1.3
			c-0.4,0.5-0.7,1.2-0.8,1.9s-0.2,1.5-0.2,2.4v16.5c0,0.8,0.1,1.6,0.2,2.4c0.2,0.7,0.4,1.4,0.8,1.9c0.4,0.5,0.9,0.9,1.5,1.2
			c0.6,0.3,1.3,0.5,2.2,0.5s1.6-0.2,2.2-0.5c0.6-0.3,1.1-0.7,1.5-1.2s0.7-1.2,0.8-1.9c0.2-0.7,0.2-1.5,0.2-2.4V80h2v3.6
			c0,1.1-0.1,2.2-0.4,3.2c-0.3,1-0.7,1.8-1.2,2.5c-0.6,0.7-1.3,1.3-2.1,1.7c-0.9,0.4-1.9,0.6-3.1,0.6c-1.2,0-2.2-0.2-3.1-0.6
			c-0.9-0.4-1.6-1-2.1-1.7c-0.6-0.7-1-1.6-1.2-2.5c-0.3-1-0.4-2-0.4-3.2V67.5c0-1.1,0.1-2.2,0.4-3.2c0.3-1,0.7-1.8,1.2-2.5
			c0.6-0.7,1.3-1.3,2.1-1.7S221.8,59.5,223,59.5z"/>
		<path class="st2" d="M235.2,83.8c0,0.8,0.1,1.6,0.2,2.4s0.4,1.4,0.8,1.9c0.4,0.5,0.9,1,1.5,1.3s1.3,0.5,2.2,0.5s1.6-0.2,2.2-0.5
			c0.6-0.3,1.1-0.7,1.5-1.3c0.4-0.5,0.6-1.2,0.8-1.9c0.2-0.7,0.2-1.5,0.2-2.4v-24h1.9v23.9c0,1.1-0.1,2.2-0.4,3.2
			c-0.2,1-0.6,1.8-1.2,2.5c-0.5,0.7-1.2,1.3-2.1,1.7c-0.9,0.4-1.9,0.6-3.1,0.6c-1.2,0-2.2-0.2-3.1-0.6c-0.9-0.4-1.6-1-2.1-1.7
			s-0.9-1.6-1.2-2.5c-0.3-1-0.4-2-0.4-3.2V59.8h2.1v24H235.2z"/>
		<path class="st2" d="M253.2,84.4l-1.6,7h-1.9l6.9-31.7h3l7.1,31.7h-2.1l-1.6-7H253.2z M253.6,82.6h9.2l-4.7-20.5L253.6,82.6z"/>
		<path class="st2" d="M276.5,59.8c2.4,0,4.1,0.6,5.2,1.9c1.1,1.3,1.6,3,1.6,5.2v2.8c0,3.7-1.5,5.9-4.6,6.6c1.6,0.4,2.8,1.1,3.5,2.2
			s1.1,2.5,1.1,4.3v4.9c0,0.7,0,1.3,0.1,2s0.3,1.3,0.6,1.8h-2.2c-0.3-0.5-0.5-1-0.5-1.6c-0.1-0.6-0.1-1.3-0.1-2.2v-5
			c0-1.1-0.1-1.9-0.4-2.6s-0.7-1.2-1.2-1.7c-0.5-0.4-1.2-0.7-1.9-0.9c-0.7-0.2-1.5-0.2-2.4-0.2H272v14.2h-2.1V59.8H276.5z
			 M275.4,75.4c0.9,0,1.8-0.1,2.5-0.2c0.7-0.2,1.3-0.4,1.8-0.8s0.9-0.9,1.2-1.6c0.3-0.7,0.4-1.6,0.4-2.6v-3c0-1.7-0.4-3.1-1.1-4
			s-1.9-1.4-3.7-1.4H272v13.7L275.4,75.4L275.4,75.4z"/>
		<path class="st2" d="M292.9,91.4V61.7h-6.5v-1.9h15v1.9H295v29.8L292.9,91.4L292.9,91.4z"/>
		<path class="st2" d="M314.8,74.4v1.9h-8.6v13.2h10.4v1.9h-12.5V59.8h12.5v1.9h-10.4v12.8L314.8,74.4L314.8,74.4z"/>
		<path class="st2" d="M325.4,91.4V61.7H319v-1.9h15v1.9h-6.4v29.8L325.4,91.4L325.4,91.4z"/>
		<path class="st2" d="M336.5,67.5c0-1.1,0.1-2.2,0.4-3.2s0.7-1.8,1.2-2.5c0.6-0.7,1.3-1.3,2.1-1.7c0.9-0.4,1.9-0.6,3.1-0.6
			s2.3,0.2,3.1,0.6c0.9,0.4,1.6,1,2.2,1.7s1,1.6,1.3,2.5c0.3,1,0.4,2,0.4,3.2v16.2c0,1.1-0.1,2.2-0.4,3.2s-0.7,1.8-1.3,2.5
			c-0.6,0.7-1.3,1.3-2.2,1.7c-0.9,0.4-1.9,0.6-3.1,0.6s-2.2-0.2-3.1-0.6s-1.6-1-2.1-1.7c-0.6-0.7-1-1.6-1.2-2.5
			c-0.3-1-0.4-2-0.4-3.2V67.5z M338.6,83.8c0,1.7,0.4,3.1,1.1,4.3c0.7,1.1,2,1.7,3.7,1.7s3-0.6,3.8-1.7s1.2-2.6,1.2-4.3V67.4
			c0-1.7-0.4-3.1-1.2-4.3c-0.8-1.1-2-1.7-3.8-1.7c-1.7,0-3,0.6-3.7,1.7s-1.1,2.6-1.1,4.3V83.8z"/>
	</g>
</g>
<g>
	<g>
		<g>
			<g>
				<path class="st3" d="M406.5,39.1L411,8.8h5.4L410.6,46h-8.7l-5.7-37.2h5.9L406.5,39.1z"/>
				<path class="st3" d="M420.4,8.8h5.8V46h-5.8V8.8z"/>
				<path class="st3" d="M437.6,24.5h8v5.3h-8v10.9h10.1V46h-15.9V8.8h15.9v5.3h-10.1V24.5z"/>
				<path class="st3" d="M451.1,40.7c0.3,0,0.7,0.1,1,0.1c0.4,0,0.7,0,1,0c0.9,0,1.7-0.2,2.4-0.7c0.7-0.5,1-1.4,1-2.9V8.8h5.8v27.9
					c0,1.9-0.2,3.4-0.7,4.6c-0.5,1.2-1.1,2.2-1.9,2.8c-0.8,0.7-1.7,1.2-2.7,1.5s-2.1,0.4-3.2,0.4c-0.5,0-1,0-1.4,0s-0.9,0-1.4-0.1
					v-5.2H451.1z"/>
				<path class="st3" d="M486.5,46h-5.9l-1-6.7h-7.2l-1,6.7H466l6-37.2h8.5L486.5,46z M473.1,34.2h5.6L476,15.4L473.1,34.2z"/>
			</g>
			<g>
				<path class="st4" d="M481.6,71.4v2.2h-10.1v15.5h12.2v2.2H469V54.2h14.7v2.2h-12.2v15H481.6z"/>
				<path class="st4" d="M496.8,53.9c1.4,0,2.6,0.2,3.6,0.7s1.8,1.1,2.4,1.9c0.6,0.8,1.1,1.8,1.4,2.9c0.3,1.1,0.5,2.4,0.5,3.7V64
					h-2.3v-1c0-1-0.1-1.9-0.3-2.7c-0.2-0.8-0.5-1.6-1-2.2c-0.4-0.6-1-1.1-1.7-1.5s-1.6-0.5-2.5-0.5c-2,0-3.4,0.6-4.3,1.9
					c-0.8,1.3-1.2,2.9-1.2,4.9c0,1.5,0.3,2.8,1,3.9s1.5,2,2.5,2.9s2.1,1.7,3.2,2.5s2.2,1.7,3.2,2.6s1.8,2,2.5,3.2s1,2.7,1,4.4
					c0,1.3-0.2,2.6-0.5,3.7s-0.8,2.1-1.4,2.9s-1.5,1.5-2.5,1.9c-1,0.5-2.2,0.7-3.6,0.7s-2.6-0.2-3.6-0.7s-1.8-1.1-2.5-1.9
					s-1.1-1.8-1.4-2.9s-0.5-2.4-0.5-3.7v-1.9h2.3v2.1c0,2,0.4,3.6,1.3,4.9s2.3,1.9,4.4,1.9s3.5-0.6,4.4-1.9c0.8-1.3,1.3-2.9,1.3-4.9
					c0-1.5-0.3-2.8-1-3.8c-0.7-1.1-1.5-2-2.5-2.9s-2.1-1.7-3.2-2.5c-1.2-0.8-2.2-1.6-3.2-2.6c-1-0.9-1.8-2-2.5-3.2s-1-2.7-1-4.4
					c0-2.8,0.6-5,1.9-6.7C492,54.8,494,53.9,496.8,53.9z"/>
				<path class="st4" d="M517.8,53.9c1.4,0,2.6,0.2,3.6,0.7s1.8,1.1,2.5,2c0.7,0.8,1.1,1.8,1.4,3c0.3,1.2,0.5,2.4,0.5,3.7v3.1h-2.3
					v-3.2c0-1-0.1-1.9-0.3-2.8c-0.2-0.9-0.5-1.6-1-2.2c-0.5-0.6-1-1.1-1.8-1.5c-0.7-0.4-1.6-0.5-2.6-0.5s-1.9,0.2-2.6,0.5
					c-0.7,0.4-1.3,0.9-1.8,1.5s-0.8,1.4-1,2.2s-0.3,1.8-0.3,2.8v19.3c0,1,0.1,1.9,0.3,2.8s0.5,1.6,1,2.2s1,1.1,1.8,1.5
					c0.7,0.4,1.6,0.5,2.6,0.5s1.9-0.2,2.6-0.5c0.7-0.4,1.3-0.8,1.8-1.5c0.5-0.6,0.8-1.4,1-2.2c0.2-0.8,0.3-1.8,0.3-2.8v-4.4h2.3v4.2
					c0,1.3-0.2,2.6-0.5,3.7s-0.8,2.1-1.4,3c-0.7,0.8-1.5,1.5-2.5,2s-2.2,0.7-3.6,0.7s-2.6-0.2-3.6-0.7s-1.8-1.1-2.5-2
					c-0.7-0.8-1.1-1.8-1.4-3s-0.5-2.4-0.5-3.7v-19c0-1.3,0.2-2.6,0.5-3.7c0.3-1.1,0.8-2.1,1.4-3c0.7-0.8,1.5-1.5,2.5-2
					C515.2,54.1,516.4,53.9,517.8,53.9z"/>
				<path class="st4" d="M533.5,82.4c0,1,0.1,1.9,0.3,2.8s0.5,1.6,1,2.3c0.4,0.6,1,1.1,1.7,1.5s1.6,0.5,2.6,0.5s1.9-0.2,2.6-0.5
					s1.3-0.9,1.7-1.5s0.8-1.4,1-2.3s0.3-1.8,0.3-2.8V54.2h2.3v28.1c0,1.3-0.1,2.6-0.4,3.7c-0.3,1.1-0.7,2.1-1.4,3
					c-0.6,0.8-1.5,1.5-2.5,2s-2.2,0.7-3.6,0.7c-1.4,0-2.6-0.2-3.6-0.7s-1.8-1.1-2.5-2c-0.6-0.9-1.1-1.8-1.4-3
					c-0.3-1.1-0.5-2.4-0.5-3.7V54.2h2.4L533.5,82.4L533.5,82.4z"/>
				<path class="st4" d="M565,71.4v2.2h-10.1v15.5h12.2v2.2h-14.7V54.2h14.7v2.2h-12.2v15H565z"/>
				<path class="st4" d="M572.4,91.4V54.2h2.4v34.9h11.7v2.2L572.4,91.4L572.4,91.4z"/>
				<path class="st4" d="M595.1,83.2l-1.9,8.2H591l8.1-37.2h3.6l8.3,37.2h-2.4l-1.9-8.2H595.1z M595.4,81h10.8l-5.5-24L595.4,81z"/>
			</g>
		</g>
	</g>
	<rect x="504.7" y="8.8" class="st4" width="106.2" height="27.5"/>
	<rect x="396.2" y="64.2" class="st0" width="59" height="27.5"/>
</g>
</svg>
