<?xml version="1.0" encoding="utf-8"?>
<!-- Generator: Adobe Illustrator 21.1.0, SVG Export Plug-In . SVG Version: 6.00 Build 0)  -->
<svg version="1.1" id="Livetype" xmlns="http://www.w3.org/2000/svg" xmlns:xlink="http://www.w3.org/1999/xlink" x="0px" y="0px"
	 viewBox="0 0 108 38" style="enable-background:new 0 0 108 38;" xml:space="preserve">
<style type="text/css">
	.st0{fill:#FFFFFF;}
</style>
<g>
	<path class="st0" d="M56.7,21.6c-1.5,0-2.6,1.2-2.6,2.9c0,1.6,1.1,2.9,2.6,2.9s2.6-1.2,2.6-2.9S58.3,21.6,56.7,21.6z"/>
	<path class="st0" d="M25.9,23.2c-3.3-2-7.4-2.5-12.2-1.4c-0.4,0.1-0.7,0.5-0.6,0.9c0.1,0.4,0.5,0.7,0.9,0.6c4.4-1,8.1-0.6,11,1.2
		c0.4,0.2,0.9,0.1,1.1-0.3C26.4,23.8,26.3,23.4,25.9,23.2z"/>
	<path class="st0" d="M12.6,13.5c-0.6,0.2-1,0.9-0.8,1.5s0.8,1,1.4,0.8c3.9-1.2,10.6-1,14.6,1.4c0.6,0.4,1.3,0.2,1.6-0.4
		c0.3-0.6,0.2-1.3-0.4-1.6C24.4,12.4,17,12.2,12.6,13.5z"/>
	<path class="st0" d="M13.4,17.7c-0.6,0.1-0.9,0.7-0.7,1.2c0.1,0.6,0.7,0.9,1.2,0.7c4-1.2,9.1-0.6,12.5,1.5c0.4,0.3,1,0.2,1.3-0.3
		s0.1-1.1-0.2-1.4C23.6,17,18,16.3,13.4,17.7z"/>
	<path class="st0" d="M67.8,21.6c-1.6,0-2.7,1.2-2.7,2.9c0,1.6,1.2,2.9,2.8,2.9c1.5,0,2.7-1.2,2.7-2.9
		C70.6,22.9,69.4,21.6,67.8,21.6z"/>
	<path class="st0" d="M60.6,8.8c-0.1-0.1-0.2-0.2-0.4-0.2c-0.1-0.1-0.3-0.1-0.5-0.1c-0.2,0-0.3,0-0.5,0.1c-0.1,0.1-0.3,0.1-0.4,0.2
		c-0.1,0.1-0.2,0.2-0.2,0.3c-0.1,0.1-0.1,0.2-0.1,0.4h2.3c0-0.1,0-0.3-0.1-0.4C60.7,9,60.7,8.9,60.6,8.8z"/>
	<path class="st0" d="M72.1,11.1c0.1,0.1,0.3,0.2,0.4,0.3c0.2,0.1,0.3,0.1,0.5,0.1s0.3,0,0.5-0.1c0.2-0.1,0.3-0.2,0.4-0.3
		c0.1-0.1,0.2-0.3,0.3-0.5s0.1-0.4,0.1-0.6s0-0.5-0.1-0.6c-0.1-0.2-0.2-0.3-0.3-0.5c-0.1-0.1-0.3-0.2-0.4-0.3
		c-0.2-0.1-0.3-0.1-0.5-0.1s-0.3,0-0.5,0.1c-0.2,0.1-0.3,0.2-0.4,0.3c-0.1,0.1-0.2,0.3-0.3,0.5c-0.1,0.2-0.1,0.4-0.1,0.6
		s0,0.5,0.1,0.6S72,11,72.1,11.1z"/>
	<path class="st0" d="M104.4,0H3.6C1.6,0,0,1.6,0,3.6v30.8c0,2,1.6,3.6,3.6,3.6h100.8c2,0,3.6-1.6,3.6-3.6V3.6
		C108,1.6,106.4,0,104.4,0z M70.8,9c0.1-0.3,0.3-0.6,0.5-0.8C71.5,8,71.7,7.9,72,7.7c0.3-0.1,0.6-0.2,1-0.2c0.4,0,0.7,0.1,1,0.2
		c0.3,0.1,0.5,0.3,0.8,0.5c0.2,0.2,0.4,0.5,0.5,0.8c0.1,0.3,0.2,0.6,0.2,1s-0.1,0.7-0.2,1c-0.1,0.3-0.3,0.6-0.5,0.8
		s-0.5,0.4-0.8,0.5c-0.3,0.1-0.6,0.2-1,0.2c-0.3,0-0.7-0.1-1-0.2c-0.3-0.1-0.6-0.3-0.8-0.5c-0.2-0.2-0.4-0.5-0.5-0.8
		c-0.1-0.3-0.2-0.6-0.2-1S70.6,9.3,70.8,9z M63,7.7h1.1v0.6c0.2-0.3,0.4-0.5,0.6-0.6c0.3-0.1,0.5-0.2,0.8-0.2c0.3,0,0.5,0,0.7,0.1
		c0.2,0.1,0.4,0.2,0.5,0.4s0.2,0.4,0.3,0.6s0.1,0.5,0.1,0.7v3h-1.1V9.6c0-0.3-0.1-0.5-0.2-0.7c-0.1-0.2-0.4-0.3-0.7-0.3
		c-0.3,0-0.6,0.1-0.7,0.3s-0.2,0.5-0.2,0.8v2.7H63V7.7z M53.8,7.7H54c0.2,0,0.4-0.1,0.5-0.2c0.1-0.1,0.2-0.3,0.2-0.5V6.3h1v1.4h1v1
		h-1v2.2c0,0.2,0,0.4,0.1,0.4s0.2,0.1,0.5,0.1c0.1,0,0.2,0,0.2,0c0.1,0,0.1,0,0.2,0v0.9c0,0-0.1,0-0.2,0.1c-0.1,0-0.3,0-0.5,0
		c-0.4,0-0.8-0.1-1-0.4c-0.2-0.2-0.4-0.6-0.4-1V8.7h-0.9V7.7z M47.4,5.5c0.1-0.1,0.3-0.2,0.5-0.2c0.2,0,0.4,0.1,0.5,0.2
		c0.1,0.1,0.2,0.3,0.2,0.5c0,0.2-0.1,0.4-0.2,0.5c-0.1,0.1-0.3,0.2-0.5,0.2c-0.2,0-0.4-0.1-0.5-0.2s-0.2-0.3-0.2-0.5
		C47.2,5.9,47.3,5.7,47.4,5.5z M48.5,7.7v4.7h-1.1V7.7H48.5z M42.1,5.6h1.2v5.7h3.1v1.1h-4.3V5.6z M20.4,31.1
		c-6.9,0-12.5-5.6-12.5-12.5c0-6.9,5.6-12.5,12.5-12.5c6.9,0,12.5,5.6,12.5,12.5C32.9,25.5,27.3,31.1,20.4,31.1z M46,29.8
		c-2,0-3.9-0.7-5.4-2.1c0,0-0.1-0.1,0-0.2l1.3-1.6c0-0.1,0.1-0.1,0.1-0.1h0.1c1.3,1.1,2.5,1.6,3.9,1.6c1.3,0,2.1-0.6,2.1-1.5
		c0-0.8-0.4-1.3-2.7-1.8c-2.7-0.7-4.3-1.6-4.3-4c0-2.3,1.9-3.9,4.5-3.9c1.8,0,3.3,0.5,4.7,1.6c0,0,0,0.1,0,0.2l-1.2,1.7
		c0,0.1-0.1,0.1-0.1,0.1h-0.1c-1.1-0.9-2.2-1.3-3.3-1.3c-1.1,0-1.9,0.6-1.9,1.4c0,0.9,0.5,1.3,2.9,1.9c3,0.7,4.2,1.8,4.1,4
		C50.7,28.2,48.9,29.8,46,29.8z M50.6,12.4c-0.2-0.1-0.4-0.2-0.6-0.4c-0.2-0.1-0.3-0.3-0.3-0.5c-0.1-0.2-0.1-0.3-0.1-0.4l1-0.3
		c0,0.2,0.1,0.4,0.3,0.6c0.2,0.2,0.4,0.2,0.7,0.2c0.2,0,0.4-0.1,0.5-0.2c0.1-0.1,0.2-0.2,0.2-0.4c0-0.1,0-0.2-0.1-0.3
		c-0.1-0.1-0.2-0.2-0.4-0.2l-0.7-0.2c-0.4-0.1-0.7-0.3-0.9-0.5c-0.2-0.2-0.3-0.5-0.3-0.9c0-0.2,0-0.4,0.1-0.6
		C49.9,8.3,50,8.1,50.1,8c0.2-0.1,0.3-0.2,0.5-0.3s0.4-0.1,0.7-0.1c0.3,0,0.6,0,0.8,0.1c0.2,0.1,0.4,0.2,0.5,0.3
		C52.9,8.2,53,8.3,53,8.5c0.1,0.2,0.1,0.3,0.1,0.4l-0.9,0.3c0-0.1,0-0.1-0.1-0.2c0-0.1-0.1-0.2-0.1-0.2s-0.2-0.1-0.3-0.2
		c-0.1,0-0.2-0.1-0.4-0.1c-0.2,0-0.4,0.1-0.5,0.2c-0.1,0.1-0.2,0.2-0.2,0.4c0,0.1,0,0.2,0.1,0.3c0.1,0.1,0.2,0.1,0.3,0.2l0.7,0.1
		c0.4,0.1,0.8,0.3,1,0.5c0.2,0.3,0.3,0.6,0.3,0.9c0,0.2,0,0.4-0.1,0.5c-0.1,0.2-0.2,0.3-0.3,0.5s-0.3,0.3-0.6,0.4
		c-0.2,0.1-0.5,0.1-0.8,0.1C51.1,12.5,50.8,12.5,50.6,12.4z M57.3,29.7c-1.3,0-2.3-0.5-3.1-1.4v3.9c0,0.1-0.1,0.2-0.2,0.2h-2.2
		c-0.1,0-0.2-0.1-0.2-0.2V19.7c0-0.1,0.1-0.2,0.2-0.2H54c0.1,0,0.2,0.1,0.2,0.2v1.1c0.9-1,1.9-1.5,3.1-1.5c2.3,0,4.6,1.8,4.6,5.3
		C61.9,27.9,59.6,29.7,57.3,29.7z M62,10.2c0,0.1,0,0.1,0,0.1h-3.4c0,0.2,0,0.3,0.1,0.5c0.1,0.1,0.2,0.3,0.3,0.4s0.2,0.2,0.4,0.3
		c0.2,0.1,0.3,0.1,0.5,0.1c0.3,0,0.6-0.1,0.8-0.2c0.2-0.2,0.3-0.4,0.4-0.6l0.9,0.3c-0.1,0.2-0.2,0.4-0.3,0.6
		c-0.1,0.2-0.3,0.3-0.5,0.5s-0.4,0.2-0.6,0.3s-0.5,0.1-0.8,0.1c-0.3,0-0.6-0.1-0.9-0.2s-0.5-0.3-0.8-0.5s-0.4-0.5-0.5-0.8
		s-0.2-0.7-0.2-1.1c0-0.4,0.1-0.7,0.2-1c0.1-0.3,0.3-0.6,0.5-0.8c0.2-0.2,0.5-0.4,0.7-0.5c0.3-0.1,0.6-0.2,0.9-0.2
		c0.4,0,0.7,0.1,1,0.2c0.3,0.1,0.5,0.3,0.7,0.5c0.2,0.2,0.3,0.5,0.4,0.8c0.1,0.3,0.2,0.6,0.2,1C62,10.1,62,10.2,62,10.2z M67.8,29.6
		c-2.9,0-5.2-2.2-5.2-5.1s2.3-5.2,5.3-5.2c2.9,0,5.2,2.3,5.2,5.1C73.1,27.3,70.8,29.6,67.8,29.6z M79.5,19.9v1.9
		c0,0.1-0.1,0.2-0.2,0.2h-2.4v4.5c0,0.7,0.3,1,1,1c0.5,0,0.9-0.1,1.3-0.3c0.1,0,0.2,0,0.2,0c0.1,0,0.1,0,0.1,0.1v1.8l-0.1,0.1
		c-0.7,0.3-1.3,0.5-2.1,0.5c-1.9,0-2.9-1-2.9-3v-4.9h-1.1c-0.1,0-0.2-0.1-0.2-0.2v-1.9c0-0.1,0.1-0.2,0.2-0.2h1.1V17
		c0-0.1,0.1-0.2,0.2-0.2h2.2c0.1,0,0.2,0.1,0.2,0.2v2.5h2.4C79.5,19.5,79.6,19.6,79.5,19.9z M79.3,8.9c-0.1-0.2-0.4-0.3-0.7-0.3
		c-0.3,0-0.6,0.1-0.7,0.3s-0.2,0.5-0.2,0.8v2.7h-1.1V7.7h1.1v0.6c0.2-0.3,0.4-0.5,0.6-0.6c0.3-0.1,0.5-0.2,0.8-0.2
		c0.3,0,0.5,0,0.7,0.1c0.2,0.1,0.4,0.2,0.5,0.4s0.2,0.4,0.3,0.6s0.1,0.5,0.1,0.7v3h-1.1V9.6C79.5,9.3,79.5,9.1,79.3,8.9z M83.2,29.3
		c0,0.1-0.1,0.2-0.2,0.2h-2.2c-0.1,0-0.2-0.1-0.2-0.2v-9.6c0-0.1,0.1-0.2,0.2-0.2H83c0,0,0.1,0.1,0.2,0.2V29.3z M81.9,18.4
		c-0.9,0-1.6-0.7-1.6-1.6c0-0.9,0.7-1.6,1.6-1.6c0.9,0,1.6,0.7,1.6,1.6C83.5,17.7,82.8,18.4,81.9,18.4z M99.2,19.9l-3.8,9.8
		c-0.8,2-1.7,2.8-3.3,2.8c-0.8,0-1.5-0.2-2.3-0.6c-0.1,0-0.1-0.1-0.1-0.2l0.7-1.6c0-0.1,0.1-0.1,0.1-0.1h0.1
		c0.4,0.2,0.8,0.3,1.2,0.3c0.5,0,0.8-0.1,1.2-0.9l-3.1-7.5h-2v7.5c0,0.1-0.1,0.2-0.2,0.2h-2.2c-0.1,0-0.2-0.1-0.2-0.2v-7.5h-1.1
		c-0.1,0-0.2-0.1-0.2-0.2v-1.9c0-0.1,0.1-0.2,0.2-0.2h1.1v-0.5c0-2.2,1.1-3.3,3.1-3.3c0.8,0,1.4,0.2,1.8,0.3
		c0.1,0.1,0.1,0.1,0.1,0.2v1.8l-0.1,0.1c0,0,0,0-0.1,0c-0.4-0.1-0.7-0.2-1.2-0.2c-0.8,0-1.1,0.4-1.1,1.3v0.3v0.1h3.8
		c0,0,0.1,0,0.1,0.1l2.6,6.7l2.3-6.7c0.1-0.1,0.1-0.1,0.2-0.1h2.3l0.1,0.1V19.9z"/>
</g>
</svg>
