<?xml version="1.0" encoding="utf-8"?>
<!-- Generator: Adobe Illustrator 21.1.0, SVG Export Plug-In . SVG Version: 6.00 Build 0)  -->
<svg version="1.1" id="Capa_1" xmlns="http://www.w3.org/2000/svg" xmlns:xlink="http://www.w3.org/1999/xlink" x="0px" y="0px"
	 viewBox="0 0 610.9 43.5" style="enable-background:new 0 0 610.9 43.5;" xml:space="preserve">
<style type="text/css">
	.st0{fill:#212121 ;}
	.st1{fill:#FD99BB;}
</style>
<g>
	<g>
		<path class="st0" d="M0,42.5V0h25.9v8.3H9.8v11.5h16.1v8H9.8v14.7H0z"/>
		<path class="st0" d="M31,27.9c0-2.1,0.4-4.1,1.1-5.9c0.7-1.9,1.8-3.5,3.2-4.9s3.1-2.5,5.1-3.4c2-0.8,4.3-1.2,6.8-1.2
			c2.6,0,4.8,0.4,6.9,1.2c2,0.8,3.7,1.9,5.1,3.4c1.4,1.4,2.5,3,3.2,4.9s1.1,3.8,1.1,5.9c0,2.1-0.4,4.1-1.1,5.9
			c-0.7,1.9-1.8,3.5-3.2,4.9s-3.1,2.5-5.1,3.4c-2,0.8-4.3,1.2-6.9,1.2c-2.5,0-4.8-0.4-6.8-1.2c-2-0.8-3.7-1.9-5.1-3.4
			c-1.4-1.4-2.5-3-3.2-4.9C31.4,32,31,30,31,27.9z M40.3,27.9c0,1.1,0.2,2,0.5,2.9s0.8,1.7,1.4,2.4c0.6,0.7,1.3,1.2,2.2,1.6
			c0.8,0.4,1.8,0.6,2.8,0.6s2-0.2,2.9-0.6c0.9-0.4,1.6-0.9,2.2-1.6c0.6-0.7,1.1-1.5,1.4-2.4c0.3-0.9,0.5-1.9,0.5-3
			c0-1-0.2-2-0.5-2.9s-0.8-1.7-1.4-2.4c-0.6-0.7-1.3-1.2-2.2-1.6c-0.9-0.4-1.8-0.6-2.9-0.6c-1,0-2,0.2-2.8,0.6
			c-0.9,0.4-1.6,0.9-2.2,1.6c-0.6,0.7-1.1,1.5-1.4,2.4C40.4,25.9,40.3,26.8,40.3,27.9z"/>
		<path class="st0" d="M69.3,42.5V13.2h9.3v4.7c0.7-1.4,1.8-2.6,3.4-3.7c1.6-1.1,3.5-1.6,5.6-1.6c1,0,1.9,0.2,2.7,0.5v8.4
			c-0.7-0.2-1.2-0.3-1.6-0.3c-0.4-0.1-1-0.1-1.5-0.1c-2.6,0-4.7,0.7-6.3,2.2c-1.5,1.5-2.3,4-2.3,7.6v11.4h-9.3V42.5z"/>
		<path class="st0" d="M92.2,27.9c0-2.2,0.4-4.2,1.1-6.1c0.7-1.9,1.7-3.5,2.9-4.8c1.3-1.4,2.7-2.4,4.4-3.2c1.7-0.8,3.5-1.2,5.5-1.2
			c2.2,0,4.1,0.5,5.7,1.4s2.8,2.1,3.6,3.5v-4.2h9.3v29.3h-9.3v-4.1c-0.7,1.3-1.9,2.5-3.5,3.4s-3.6,1.4-5.8,1.4
			c-1.9,0-3.8-0.4-5.5-1.2c-1.7-0.8-3.2-1.9-4.4-3.2c-1.3-1.4-2.2-3-2.9-4.9C92.6,32.1,92.2,30.1,92.2,27.9z M101.5,27.9
			c0,1,0.2,2,0.5,2.9s0.8,1.7,1.4,2.4s1.3,1.2,2.2,1.6c0.8,0.4,1.8,0.6,2.8,0.6s2-0.2,2.9-0.6c0.9-0.4,1.6-0.9,2.2-1.6
			c0.6-0.7,1.1-1.4,1.4-2.4c0.3-0.9,0.5-1.9,0.5-2.9s-0.2-2-0.5-2.8c-0.3-0.9-0.8-1.7-1.4-2.4s-1.3-1.2-2.2-1.6
			c-0.8-0.4-1.8-0.6-2.9-0.6c-1,0-2,0.2-2.8,0.6c-0.8,0.4-1.6,0.9-2.2,1.6c-0.6,0.7-1.1,1.5-1.4,2.4
			C101.7,25.9,101.5,26.9,101.5,27.9z"/>
		<path class="st0" d="M130.6,32.7h9.1c0,1.3,0.4,2.2,1.3,2.8c0.9,0.6,2,0.9,3.4,0.9c1.1,0,2.1-0.2,2.8-0.6c0.7-0.4,1.1-1,1.1-1.8
			c0-0.5-0.2-0.9-0.5-1.2s-0.8-0.6-1.4-0.9c-0.6-0.3-1.4-0.5-2.4-0.8s-2.2-0.7-3.6-1.1c-1.2-0.4-2.4-0.8-3.5-1.2s-2.1-1-2.9-1.6
			c-0.8-0.6-1.5-1.4-1.9-2.3c-0.5-0.9-0.7-2-0.7-3.4c0-1.5,0.3-2.9,0.9-4c0.6-1.1,1.5-2.1,2.6-2.8s2.4-1.3,4-1.6
			c1.5-0.4,3.2-0.5,5.1-0.5c2.3,0,4.2,0.3,5.9,0.8c1.6,0.5,3,1.2,4,2.1c1,0.9,1.8,1.9,2.3,3.1c0.5,1.2,0.8,2.5,0.8,3.9h-9.2
			c0-1.2-0.3-2.1-0.9-2.8c-0.6-0.7-1.6-1-2.8-1c-1,0-1.8,0.2-2.5,0.6c-0.7,0.4-1,1.1-1,1.9c0,0.6,0.2,1,0.5,1.4
			c0.3,0.3,0.8,0.7,1.4,0.9c0.6,0.3,1.4,0.6,2.3,0.9c0.9,0.3,2,0.6,3.2,1c1.3,0.3,2.5,0.7,3.6,1.1c1.1,0.4,2.1,0.9,3,1.5
			s1.5,1.3,2,2.2s0.8,2,0.8,3.4c0,1.8-0.4,3.3-1.1,4.6c-0.7,1.3-1.7,2.3-2.9,3.1c-1.2,0.8-2.6,1.4-4.2,1.7c-1.6,0.3-3.2,0.5-5,0.5
			c-4.3,0-7.7-0.9-10.1-2.7C131.8,38.8,130.6,36.2,130.6,32.7z"/>
		<path class="st0" d="M159.7,20.2v-6.9h4.6V4.6h9.3v8.7h6.6v6.9h-6.6v10.4c0,1.1,0.1,1.9,0.3,2.6c0.2,0.6,0.5,1.1,0.8,1.5
			c0.4,0.4,0.8,0.6,1.3,0.7c0.5,0.1,1.1,0.2,1.8,0.2c0.4,0,0.9,0,1.5,0s1.1-0.1,1.6-0.2v7.2c-0.7,0.1-1.6,0.2-2.6,0.3
			c-1,0.1-2.3,0.2-3.7,0.2c-1.1,0-2.2-0.1-3.4-0.2c-1.2-0.2-2.3-0.6-3.4-1.2c-1-0.7-1.9-1.7-2.6-3.1c-0.7-1.4-1-3.3-1-5.7V20.2
			H159.7z"/>
		<path class="st0" d="M183.4,27.9c0-2.2,0.3-4.2,1-6c0.7-1.9,1.6-3.5,3-4.9c1.3-1.4,2.9-2.5,4.8-3.3c1.9-0.8,4.1-1.2,6.5-1.2
			s4.5,0.4,6.4,1.1c1.9,0.7,3.5,1.7,4.8,3s2.3,2.8,3,4.6s1.1,3.7,1.1,5.7c0,0.6,0,1.1-0.1,1.5c0,0.4-0.1,1-0.2,1.8h-21
			c0,0.9,0.1,1.7,0.3,2.4c0.2,0.8,0.6,1.4,1.1,2s1.1,1,1.9,1.3c0.8,0.3,1.8,0.5,3,0.5c1.7,0,2.9-0.3,3.7-0.9
			c0.8-0.6,1.4-1.3,1.7-2.2h9.1c-0.2,1.4-0.7,2.7-1.5,3.9s-1.7,2.3-3,3.2c-1.2,0.9-2.7,1.6-4.3,2.2c-1.7,0.5-3.6,0.8-5.7,0.8
			c-2.5,0-4.8-0.4-6.8-1.2c-2-0.8-3.6-1.9-4.9-3.3c-1.3-1.4-2.3-3-3-4.9C183.7,32,183.4,30,183.4,27.9z M192.7,24.8h12.2
			c0-1.7-0.6-3-1.7-4c-1.1-1-2.6-1.5-4.4-1.5c-1.7,0-3.2,0.5-4.4,1.4C193.2,21.7,192.7,23,192.7,24.8z"/>
		<path class="st0" d="M220.3,42.5V13.2h9.3v4.7c0.7-1.4,1.8-2.6,3.4-3.7c1.6-1.1,3.5-1.6,5.6-1.6c1,0,1.9,0.2,2.7,0.5v8.4
			c-0.7-0.2-1.2-0.3-1.6-0.3c-0.4-0.1-1-0.1-1.5-0.1c-2.6,0-4.7,0.7-6.3,2.2c-1.5,1.5-2.3,4-2.3,7.6v11.4h-9.3V42.5z"/>
		<path class="st0" d="M242.2,27.9c0-2.1,0.4-4.1,1.1-5.9c0.7-1.9,1.8-3.5,3.2-4.9s3.1-2.5,5.1-3.4c2-0.8,4.3-1.2,6.8-1.2
			c2.6,0,4.8,0.4,6.9,1.2c2,0.8,3.7,1.9,5.1,3.4c1.4,1.4,2.5,3,3.2,4.9s1.1,3.8,1.1,5.9c0,2.1-0.4,4.1-1.1,5.9
			c-0.7,1.9-1.8,3.5-3.2,4.9c-1.4,1.4-3.1,2.5-5.1,3.4c-2,0.8-4.3,1.2-6.9,1.2c-2.5,0-4.8-0.4-6.8-1.2c-2-0.8-3.7-1.9-5.1-3.4
			c-1.4-1.4-2.5-3-3.2-4.9C242.6,32,242.2,30,242.2,27.9z M251.5,27.9c0,1.1,0.2,2,0.5,2.9s0.8,1.7,1.4,2.4c0.6,0.7,1.3,1.2,2.2,1.6
			c0.8,0.4,1.8,0.6,2.8,0.6s2-0.2,2.9-0.6c0.9-0.4,1.6-0.9,2.2-1.6c0.6-0.7,1.1-1.5,1.4-2.4s0.5-1.9,0.5-3c0-1-0.2-2-0.5-2.9
			s-0.8-1.7-1.4-2.4s-1.3-1.2-2.2-1.6c-0.9-0.4-1.8-0.6-2.9-0.6c-1,0-2,0.2-2.8,0.6c-0.9,0.4-1.6,0.9-2.2,1.6
			c-0.6,0.7-1.1,1.5-1.4,2.4C251.6,25.9,251.5,26.8,251.5,27.9z"/>
	</g>
	<g>
		<g>
			<path class="st1" d="M317,31.7h2.6c0,1.9,0.6,3.6,1.8,4.8c1.2,1.2,2.9,1.8,5.2,1.8c1.8,0,3.3-0.4,4.4-1.4
				c1.2-0.9,1.7-2.2,1.7-3.9c0-1-0.2-1.7-0.5-2.3c-0.3-0.5-0.9-1.1-1.4-1.5c-0.5-0.4-1.2-0.8-1.9-1c-0.8-0.2-1.4-0.4-2.2-0.6
				c-1.2-0.3-2.3-0.8-3.3-1.1s-1.9-0.8-2.8-1.4c-0.8-0.5-1.4-1.3-1.9-2.2c-0.4-0.9-0.8-1.9-0.8-3.1c0-1.2,0.2-2.3,0.6-3.1
				c0.4-0.9,1-1.7,1.7-2.3c0.8-0.6,1.6-1.1,2.7-1.4c1-0.3,2.1-0.4,3.2-0.4c1.3,0,2.4,0.2,3.5,0.5c1.1,0.3,1.9,0.9,2.7,1.6
				c0.8,0.6,1.3,1.5,1.7,2.5c0.4,1,0.6,2.2,0.6,3.5h-2.6c0-1.8-0.5-3.3-1.6-4.3c-1-1-2.5-1.4-4.2-1.4c-1.6,0-3,0.4-4.1,1.2
				c-1.1,0.9-1.6,2.1-1.6,3.6c0,0.9,0.2,1.6,0.5,2.2c0.3,0.5,0.8,1.1,1.3,1.4c0.5,0.4,1.2,0.6,1.9,1c0.8,0.2,1.5,0.4,2.3,0.8
				c1.1,0.3,2.2,0.6,3.1,1c1.1,0.3,1.9,0.9,2.8,1.4c0.9,0.5,1.5,1.3,2.1,2.2c0.5,0.9,0.8,1.9,0.8,3.3c0,1.3-0.2,2.4-0.6,3.3
				c-0.4,1-1.1,1.7-1.8,2.4c-0.8,0.6-1.7,1.2-2.8,1.5c-1.1,0.3-2.3,0.5-3.6,0.5c-1.4,0-2.7-0.2-3.9-0.6c-1.2-0.4-2.2-1.1-3-1.8
				c-0.9-0.8-1.5-1.7-1.9-2.8C317.2,34.3,317,33,317,31.7z"/>
			<path class="st1" d="M338.9,31.4c0-1.3,0.2-2.4,0.5-3.5c0.3-1.1,0.9-1.9,1.6-2.8c0.6-0.8,1.5-1.4,2.6-1.8c1-0.4,2.2-0.6,3.3-0.6
				s2.3,0.2,3.2,0.5c1,0.4,1.8,1,2.6,1.6c0.8,0.6,1.3,1.5,1.7,2.4c0.4,1,0.6,1.9,0.6,3c0,0.2,0,0.4,0,0.8s0,0.6-0.1,1h-13.6
				c0,0.9,0.1,1.6,0.3,2.4c0.2,0.8,0.6,1.4,1.1,2.1c0.5,0.5,1.1,1,1.8,1.4c0.8,0.3,1.6,0.5,2.6,0.5c1.5,0,2.6-0.3,3.5-1
				c0.8-0.6,1.4-1.4,1.6-2.2h2.5c-0.1,0.6-0.4,1.4-0.9,2.1c-0.4,0.6-1,1.2-1.6,1.7c-0.6,0.4-1.4,0.9-2.3,1.2
				c-0.9,0.3-1.8,0.4-2.9,0.4c-1.4,0-2.7-0.2-3.7-0.8c-1.1-0.5-1.9-1.2-2.6-2.1s-1.2-1.8-1.5-2.9C339.2,33.6,338.9,32.6,338.9,31.4z
				 M341.4,30.1h11.3c0-0.8-0.1-1.5-0.4-2.2c-0.3-0.6-0.6-1.3-1.2-1.7c-0.5-0.4-1.1-0.9-1.8-1.1c-0.6-0.2-1.4-0.4-2.3-0.4
				c-1.6,0-2.9,0.5-4,1.5C342.2,27.2,341.5,28.5,341.4,30.1z"/>
			<path class="st1" d="M360.3,40V13h2.5v13.5c0.5-1.3,1.5-2.3,2.7-3s2.6-1.1,4.1-1.1c1.3,0,2.4,0.2,3.5,0.8
				c1.1,0.4,1.9,1.1,2.7,1.9c0.8,0.8,1.4,1.7,1.8,2.8c0.4,1.1,0.6,2.3,0.6,3.5s-0.2,2.4-0.6,3.5c-0.4,1.1-1.1,2.1-1.8,2.8
				c-0.8,0.9-1.7,1.5-2.7,1.9c-1.1,0.4-2.3,0.8-3.5,0.8c-1.6,0-3-0.4-4.2-1.2s-1.9-1.7-2.5-2.9v3.7h-2.6V40z M362.8,31.5
				c0,0.9,0.1,1.7,0.4,2.6c0.3,0.8,0.8,1.5,1.3,2.2c0.5,0.6,1.3,1.1,2.1,1.4c0.8,0.3,1.7,0.5,2.7,0.5s1.9-0.2,2.7-0.5
				s1.5-0.9,2.1-1.5c0.5-0.6,1-1.3,1.3-2.2c0.3-0.8,0.4-1.6,0.4-2.6c0-0.9-0.1-1.7-0.4-2.6c-0.3-0.8-0.8-1.5-1.3-2.2
				c-0.5-0.6-1.3-1.1-2.1-1.5c-0.8-0.3-1.7-0.5-2.7-0.5s-1.8,0.2-2.7,0.5c-0.8,0.3-1.5,0.9-2.1,1.4c-0.5,0.6-1,1.3-1.3,2.2
				C362.9,29.8,362.8,30.6,362.8,31.5z"/>
			<path class="st1" d="M381.6,31.5c0-1.2,0.2-2.4,0.6-3.5c0.4-1.1,1-2.1,1.8-2.8c0.8-0.8,1.7-1.4,2.7-1.9c1.1-0.4,2.3-0.8,3.5-0.8
				c1.5,0,2.9,0.3,4.1,1.1c1.2,0.8,2.1,1.7,2.7,3v-3.7h2.5V40h-2.5v-3.7c-0.5,1.2-1.4,2.2-2.5,2.9c-1.2,0.8-2.6,1.2-4.2,1.2
				c-1.3,0-2.5-0.2-3.6-0.8c-1.1-0.4-1.9-1.1-2.7-1.9s-1.4-1.7-1.8-2.8C381.8,33.9,381.6,32.7,381.6,31.5z M384.1,31.5
				c0,0.9,0.1,1.7,0.4,2.6c0.3,0.8,0.8,1.5,1.3,2.2s1.2,1.1,2.1,1.5c0.8,0.3,1.7,0.5,2.7,0.5c1,0,1.8-0.2,2.7-0.5
				c0.8-0.3,1.5-0.9,2.1-1.4c0.5-0.6,1-1.3,1.3-2.2c0.3-0.8,0.4-1.6,0.4-2.6c0-1-0.1-1.8-0.4-2.6c-0.3-0.8-0.8-1.5-1.3-2.2
				s-1.3-1.1-2.1-1.4s-1.7-0.5-2.7-0.5c-1,0-1.8,0.2-2.7,0.5c-0.8,0.3-1.5,0.9-2.1,1.5c-0.5,0.6-1,1.3-1.3,2.2
				C384.2,29.8,384.1,30.6,384.1,31.5z"/>
			<path class="st1" d="M404.4,34.3h2.4c0,0.8,0.1,1.4,0.4,1.9c0.2,0.5,0.6,1,1.1,1.3s1,0.5,1.6,0.8c0.6,0.1,1.3,0.2,1.9,0.2
				c1.3,0,2.2-0.2,2.9-0.8c0.6-0.4,1-1.2,1-2.1c0-0.6-0.1-1.1-0.4-1.4c-0.3-0.3-0.8-0.6-1.2-0.9c-0.5-0.2-1.1-0.4-1.7-0.5
				s-1.4-0.3-2.2-0.4c-0.5-0.2-1.2-0.4-1.8-0.6c-0.6-0.1-1.2-0.4-1.6-0.8c-0.5-0.3-0.9-0.9-1.2-1.4c-0.3-0.5-0.4-1.2-0.4-2.1
				c0-0.9,0.2-1.6,0.5-2.2c0.3-0.6,0.8-1.1,1.4-1.5c0.5-0.4,1.2-0.8,1.9-0.9c0.8-0.2,1.6-0.3,2.5-0.3c1,0,1.8,0.1,2.6,0.4
				c0.8,0.2,1.5,0.6,2.1,1.1c0.5,0.5,1.1,1.1,1.4,1.8s0.4,1.5,0.4,2.4h-2.2c0-1.2-0.4-2.1-1.2-2.7c-0.8-0.6-1.8-1-3.1-1
				c-1.2,0-2.2,0.2-2.9,0.8c-0.8,0.5-1.1,1.2-1.1,2.2c0,0.5,0.2,1,0.5,1.3c0.3,0.3,0.8,0.6,1.4,0.9c0.6,0.2,1.1,0.3,1.4,0.4
				c0.3,0.1,1,0.2,1.7,0.3c0.9,0.2,1.6,0.4,2.2,0.5c0.6,0.1,1.2,0.4,1.7,0.8c0.5,0.4,1,0.9,1.3,1.4c0.3,0.5,0.4,1.3,0.4,2.2
				c0,1.6-0.5,2.8-1.7,3.7c-1.2,0.9-2.7,1.3-4.5,1.3c-1.1,0-1.9-0.1-2.9-0.3c-0.9-0.2-1.7-0.6-2.4-1.2s-1.2-1.2-1.6-1.9
				C404.6,36.2,404.4,35.3,404.4,34.3z"/>
			<path class="st1" d="M420.3,25.1v-2.2h3.5v-6.3h2.5v6.3h5v2.2h-5v8.8c0,0.9,0.1,1.6,0.2,2.2c0.2,0.5,0.4,1,0.6,1.3
				c0.2,0.3,0.6,0.4,1,0.5c0.3,0.1,0.8,0.1,1.2,0.1s0.9,0,1.3-0.1c0.4,0,0.9-0.1,1.2-0.1V40c-0.3,0-0.8,0.1-1.3,0.1
				s-1.1,0.1-1.6,0.1s-1.1,0-1.7-0.1c-0.6-0.1-1.2-0.3-1.6-0.8c-0.4-0.4-1-1-1.3-1.8c-0.3-0.9-0.5-1.8-0.5-3.2v-9.2H420.3z"/>
			<path class="st1" d="M434.7,16.2c0-0.6,0.2-1.2,0.6-1.6c0.4-0.4,1-0.6,1.6-0.6s1.2,0.2,1.6,0.6c0.4,0.4,0.6,1,0.6,1.6
				c0,0.6-0.2,1.2-0.6,1.6c-0.4,0.4-1,0.6-1.6,0.6s-1.2-0.2-1.6-0.6C434.9,17.4,434.7,16.9,434.7,16.2z M435.7,40V22.9h2.5V40H435.7
				z"/>
			<path class="st1" d="M443.5,31.5c0-1.2,0.2-2.4,0.6-3.5c0.4-1.1,1-2.1,1.8-2.8c0.8-0.8,1.7-1.4,2.7-1.9c1.1-0.4,2.3-0.8,3.5-0.8
				c1.5,0,2.9,0.3,4.1,1.1c1.2,0.8,2.1,1.7,2.7,3v-3.7h2.5V40H459v-3.7c-0.5,1.2-1.4,2.2-2.5,2.9c-1.2,0.8-2.6,1.2-4.2,1.2
				c-1.3,0-2.5-0.2-3.6-0.8c-1.1-0.4-1.9-1.1-2.7-1.9s-1.4-1.7-1.8-2.8C443.7,33.9,443.5,32.7,443.5,31.5z M446,31.5
				c0,0.9,0.1,1.7,0.4,2.6c0.3,0.8,0.8,1.5,1.3,2.2s1.2,1.1,2.1,1.5c0.8,0.3,1.7,0.5,2.7,0.5c1,0,1.8-0.2,2.7-0.5
				c0.8-0.3,1.5-0.9,2.1-1.4c0.5-0.6,1-1.3,1.3-2.2c0.3-0.8,0.4-1.6,0.4-2.6c0-1-0.1-1.8-0.4-2.6s-0.8-1.5-1.3-2.2s-1.3-1.1-2.1-1.4
				c-0.8-0.3-1.7-0.5-2.7-0.5c-1,0-1.8,0.2-2.7,0.5c-0.8,0.3-1.5,0.9-2.1,1.5c-0.5,0.6-1,1.3-1.3,2.2C446.1,29.8,446,30.6,446,31.5z
				 M446.4,18.4l9.6-5.3l1.2,2.1l-9.6,5.3L446.4,18.4z"/>
			<path class="st1" d="M467.8,40V22.9h2.5v3.8c0.5-1.2,1.3-2.2,2.4-2.9s2.5-1.2,4.2-1.2c1,0,1.9,0.2,2.8,0.5
				c0.9,0.3,1.6,0.9,2.3,1.6c0.5,0.6,0.9,1.4,1.1,2.3c0.2,0.9,0.3,1.9,0.3,3v10h-2.5v-9.3c0-0.9-0.1-1.6-0.3-2.4
				c-0.2-0.8-0.4-1.3-0.9-1.8c-0.4-0.5-0.9-1-1.5-1.3s-1.3-0.4-2.2-0.4c-1,0-1.8,0.2-2.5,0.5c-0.8,0.3-1.3,0.9-1.7,1.5
				c-0.4,0.6-0.9,1.3-1.1,2.1s-0.3,1.5-0.3,2.4v8.8h-2.6V40z"/>
		</g>
		<g>
			<path class="st1" d="M498.2,26.5c0-1.8,0.3-3.6,1-5.3c0.6-1.7,1.5-3.1,2.7-4.4c1.2-1.3,2.6-2.4,4.3-3.1c1.7-0.8,3.7-1.2,5.9-1.2
				c1.7,0,3.3,0.2,4.8,0.8c1.4,0.4,2.7,1.2,3.8,2.1c1.1,0.9,1.9,1.8,2.7,3c0.8,1.2,1.2,2.5,1.5,3.9h-2.7c-0.2-1-0.6-1.9-1.2-2.8
				c-0.5-0.9-1.3-1.6-2.1-2.3c-0.9-0.6-1.8-1.2-2.9-1.5c-1.1-0.4-2.4-0.5-3.8-0.5c-1.8,0-3.3,0.3-4.9,1c-1.4,0.6-2.6,1.5-3.6,2.6
				s-1.7,2.3-2.2,3.8c-0.5,1.4-0.8,2.9-0.8,4.4c0,1.6,0.2,3.1,0.8,4.5c0.5,1.4,1.3,2.7,2.3,3.7c1,1.1,2.2,1.9,3.6,2.6
				c1.4,0.6,3,1,4.8,1c1.3,0,2.4-0.1,3.5-0.4c1.1-0.3,1.9-0.8,2.8-1.3c0.8-0.5,1.5-1.2,2.1-1.9c0.5-0.8,1-1.5,1.3-2.4h2.8
				c-0.3,1.2-0.9,2.3-1.6,3.3c-0.8,1.1-1.6,1.9-2.7,2.7c-1.1,0.8-2.3,1.4-3.7,1.8c-1.4,0.4-2.9,0.6-4.5,0.6c-2.2,0-4.1-0.4-5.8-1.2
				c-1.7-0.8-3.1-1.7-4.3-3s-2.2-2.8-2.8-4.5C498.5,30.2,498.2,28.3,498.2,26.5z"/>
			<path class="st1" d="M528.1,31.5c0-1.2,0.2-2.4,0.6-3.5c0.4-1.1,1-2.1,1.8-2.8c0.8-0.8,1.7-1.4,2.7-1.9c1.1-0.4,2.3-0.8,3.5-0.8
				c1.5,0,2.9,0.3,4.1,1.1s2.1,1.7,2.7,3v-3.7h2.5V40h-2.5v-3.7c-0.5,1.2-1.4,2.2-2.5,2.9c-1.2,0.8-2.6,1.2-4.2,1.2
				c-1.3,0-2.5-0.2-3.6-0.8c-1.1-0.4-1.9-1.1-2.7-1.9s-1.4-1.7-1.8-2.8C528.3,33.9,528.1,32.7,528.1,31.5z M530.6,31.5
				c0,0.9,0.1,1.7,0.4,2.6c0.3,0.8,0.8,1.5,1.3,2.2c0.5,0.6,1.2,1.1,2.1,1.5c0.8,0.3,1.7,0.5,2.7,0.5s1.8-0.2,2.7-0.5
				c0.8-0.3,1.5-0.9,2.1-1.4c0.5-0.6,1-1.3,1.3-2.2c0.3-0.8,0.4-1.6,0.4-2.6c0-1-0.1-1.8-0.4-2.6c-0.3-0.8-0.8-1.5-1.3-2.2
				c-0.5-0.6-1.3-1.1-2.1-1.4c-0.8-0.3-1.7-0.5-2.7-0.5s-1.8,0.2-2.7,0.5c-0.8,0.3-1.5,0.9-2.1,1.5c-0.5,0.6-1,1.3-1.3,2.2
				C530.7,29.8,530.6,30.6,530.6,31.5z"/>
			<path class="st1" d="M550.9,34.3h2.4c0,0.8,0.1,1.4,0.4,1.9c0.2,0.5,0.6,1,1.1,1.3s1,0.5,1.6,0.8c0.6,0.1,1.3,0.2,1.9,0.2
				c1.3,0,2.2-0.2,2.9-0.8c0.6-0.4,1-1.2,1-2.1c0-0.6-0.1-1.1-0.4-1.4s-0.8-0.6-1.2-0.9c-0.5-0.2-1.1-0.4-1.7-0.5
				c-0.6-0.1-1.4-0.3-2.2-0.4c-0.5-0.2-1.2-0.4-1.8-0.6c-0.6-0.1-1.2-0.4-1.6-0.8c-0.5-0.3-0.9-0.9-1.2-1.4
				c-0.3-0.5-0.4-1.2-0.4-2.1c0-0.9,0.2-1.6,0.5-2.2c0.3-0.6,0.8-1.1,1.4-1.5c0.5-0.4,1.2-0.8,1.9-0.9c0.8-0.2,1.6-0.3,2.5-0.3
				c1,0,1.8,0.1,2.6,0.4c0.8,0.2,1.5,0.6,2.1,1.1c0.5,0.5,1.1,1.1,1.4,1.8s0.4,1.5,0.4,2.4h-2.2c0-1.2-0.4-2.1-1.2-2.7s-1.8-1-3.1-1
				c-1.2,0-2.2,0.2-2.9,0.8c-0.8,0.5-1.1,1.2-1.1,2.2c0,0.5,0.2,1,0.5,1.3c0.3,0.3,0.8,0.6,1.4,0.9c0.6,0.2,1.1,0.3,1.4,0.4
				c0.3,0.1,1,0.2,1.7,0.3c0.9,0.2,1.6,0.4,2.2,0.5c0.6,0.1,1.2,0.4,1.7,0.8c0.5,0.4,1,0.9,1.3,1.4c0.3,0.5,0.4,1.3,0.4,2.2
				c0,1.6-0.5,2.8-1.7,3.7s-2.7,1.3-4.5,1.3c-1.1,0-1.9-0.1-2.9-0.3c-0.9-0.2-1.7-0.6-2.4-1.2c-0.6-0.5-1.2-1.2-1.6-1.9
				C551.1,36.2,550.9,35.3,550.9,34.3z"/>
			<path class="st1" d="M566.8,25.1v-2.2h3.5v-6.3h2.5v6.3h5v2.2h-5v8.8c0,0.9,0.1,1.6,0.2,2.2c0.2,0.5,0.4,1,0.6,1.3s0.6,0.4,1,0.5
				c0.3,0.1,0.8,0.1,1.2,0.1s0.9,0,1.3-0.1c0.4,0,0.9-0.1,1.2-0.1V40c-0.3,0-0.8,0.1-1.3,0.1c-0.5,0-1.1,0.1-1.6,0.1
				c-0.5,0-1.1,0-1.7-0.1c-0.6-0.1-1.2-0.3-1.6-0.8c-0.4-0.4-1-1-1.3-1.8c-0.3-0.9-0.5-1.8-0.5-3.2v-9.2H566.8z"/>
			<path class="st1" d="M581.8,40V22.9h2.5v4c0.5-1.4,1.3-2.5,2.5-3.1c1.1-0.8,2.4-1.1,3.7-1.1c0.3,0,0.6,0,0.9,0.1
				c0.3,0,0.5,0.1,0.8,0.2v2.3c-0.3-0.1-0.6-0.1-0.9-0.1c-0.2,0-0.4,0-0.6,0c-1.1,0-2.1,0.2-2.8,0.6c-0.8,0.4-1.4,1-1.9,1.6
				c-0.5,0.6-0.9,1.4-1.1,2.4c-0.2,0.9-0.3,1.8-0.3,2.8v7.6h-2.6V40z"/>
			<path class="st1" d="M593,31.5c0-1.2,0.2-2.4,0.6-3.5s1.1-2.1,1.8-2.8c0.8-0.8,1.7-1.4,2.8-1.9c1.1-0.4,2.4-0.8,3.7-0.8
				s2.6,0.2,3.7,0.8c1.1,0.4,2.1,1.1,2.8,1.9c0.8,0.8,1.4,1.7,1.8,2.8c0.4,1.1,0.6,2.3,0.6,3.5c0,1.2-0.2,2.4-0.6,3.5
				c-0.4,1.1-1,2.1-1.8,2.8c-0.8,0.9-1.7,1.5-2.8,1.9s-2.4,0.8-3.7,0.8c-1.4,0-2.6-0.2-3.7-0.8c-1.1-0.4-2.1-1.1-2.8-1.9
				c-0.8-0.9-1.4-1.7-1.8-2.8C593.2,33.9,593,32.7,593,31.5z M595.4,31.5c0,0.9,0.1,1.7,0.4,2.6c0.3,0.8,0.8,1.5,1.3,2.2
				c0.5,0.6,1.2,1.1,2.1,1.5c0.8,0.3,1.7,0.5,2.7,0.5s1.8-0.2,2.7-0.5c0.8-0.3,1.5-0.9,2.1-1.4c0.5-0.6,1-1.3,1.3-2.2
				c0.3-0.8,0.4-1.6,0.4-2.6c0-1-0.1-1.8-0.4-2.6c-0.3-0.8-0.8-1.5-1.3-2.2c-0.5-0.6-1.3-1.1-2.1-1.4s-1.7-0.5-2.7-0.5
				s-1.8,0.2-2.7,0.5c-0.8,0.3-1.5,0.9-2.1,1.5c-0.5,0.6-1,1.3-1.3,2.2C595.7,29.8,595.4,30.6,595.4,31.5z"/>
		</g>
	</g>
</g>
</svg>
