<?xml version="1.0" encoding="utf-8"?>
<!-- Generator: Adobe Illustrator 21.1.0, SVG Export Plug-In . SVG Version: 6.00 Build 0)  -->
<svg version="1.1" id="Livetype" xmlns="http://www.w3.org/2000/svg" xmlns:xlink="http://www.w3.org/1999/xlink" x="0px" y="0px"
	 viewBox="0 0 108 38" style="enable-background:new 0 0 108 38;" xml:space="preserve">
<style type="text/css">
	.st0{fill:#FFFFFF;}
</style>
<g>
	<path class="st0" d="M49.8,21.2c-1.1,0-1.8,1-1.8,2.4c0,1.4,0.7,2.4,1.8,2.4c1.1,0,1.9-0.9,1.9-2.4C51.7,22.1,51,21.2,49.8,21.2z"
		/>
	<path class="st0" d="M42.1,21.2c-1.1,0-1.8,1-1.8,2.4c0,1.4,0.7,2.4,1.8,2.4c1.1,0,1.9-0.9,1.9-2.4C44,22.1,43.2,21.2,42.1,21.2z"
		/>
	<path class="st0" d="M43.3,11.5c-0.5,0-0.9,0.4-0.9,0.9h1.8C44.1,11.8,43.8,11.5,43.3,11.5z"/>
	<path class="st0" d="M60.2,21.1c-1,0-1.7,0.7-1.8,1.8h3.5C61.9,21.8,61.2,21.1,60.2,21.1z"/>
	<path class="st0" d="M19.7,11.6c0,0-0.5,0.1-0.5,0.1l-5.8,1.2l0,0c-0.2,0-0.3,0.1-0.4,0.2c-0.1,0.1-0.2,0.2-0.2,0.4
		c0,0,0,0.1,0,0.2c0,0,0,5.9,0,7.2c0,0.2,0,0.3-0.1,0.5c-0.1,0.1-0.3,0.2-0.4,0.2c-0.1,0-0.3,0.1-0.4,0.1c-0.5,0.1-0.8,0.2-1.1,0.3
		c-0.3,0.1-0.5,0.2-0.6,0.4c-0.3,0.3-0.4,0.8-0.4,1.2c0,0.4,0.2,0.7,0.5,1c0.2,0.2,0.4,0.3,0.7,0.4c0.3,0.1,0.6,0,1-0.1
		c0.2,0,0.5-0.1,0.7-0.2c0.2-0.1,0.4-0.3,0.5-0.5c0.1-0.2,0.2-0.4,0.3-0.7c0.1-0.2,0.1-0.5,0.1-0.7l0-6.3c0-0.3,0.1-0.4,0.4-0.5
		c0,0,4.8-1,5-1c0.3-0.1,0.5,0,0.5,0.4l0,4.3c0,0.2,0,0.3-0.1,0.5c-0.1,0.1-0.3,0.2-0.4,0.2c-0.1,0-0.3,0.1-0.4,0.1
		c-0.5,0.1-0.8,0.2-1.1,0.3c-0.3,0.1-0.5,0.2-0.6,0.4c-0.3,0.3-0.5,0.8-0.4,1.2c0,0.4,0.2,0.7,0.5,1c0.2,0.2,0.4,0.3,0.7,0.4
		c0.3,0.1,0.6,0,1-0.1c0.2,0,0.5-0.1,0.7-0.2c0.2-0.1,0.4-0.3,0.5-0.5c0.1-0.2,0.2-0.4,0.3-0.7c0.1-0.2,0.1-0.5,0.1-0.7l0-9.2
		C20.2,11.8,20,11.6,19.7,11.6z"/>
	<polygon class="st0" points="33.6,19 32.2,23.2 35.1,23.2 33.7,19 	"/>
	<path class="st0" d="M53.3,11.5c-0.6,0-0.9,0.4-0.9,1.2c0,0.8,0.3,1.2,0.9,1.2c0.6,0,1-0.4,1-1.2C54.2,11.9,53.9,11.5,53.3,11.5z"
		/>
	<path class="st0" d="M104.4,0H3.6C1.6,0,0,1.6,0,3.6v30.8c0,2,1.6,3.6,3.6,3.6h100.8c2,0,3.6-1.6,3.6-3.6V3.6
		C108,1.6,106.4,0,104.4,0z M43.3,10.9c1,0,1.6,0.7,1.6,1.8v0.2h-2.5v0c0,0.6,0.4,1,0.9,1c0.4,0,0.7-0.2,0.8-0.4h0.7
		c-0.2,0.6-0.7,1-1.5,1c-1,0-1.6-0.7-1.6-1.8C41.6,11.6,42.3,10.9,43.3,10.9z M38.9,10.9h0.6V10h0.7v0.9h0.8v0.6h-0.8v1.8
		c0,0.4,0.2,0.5,0.5,0.5c0.1,0,0.2,0,0.3,0v0.6c-0.1,0-0.2,0-0.4,0c-0.8,0-1.1-0.3-1.1-1v-2h-0.6V10.9z M34.1,9.4
		c0.3,0,0.5,0.2,0.5,0.4c0,0.2-0.2,0.4-0.5,0.4s-0.5-0.2-0.5-0.4C33.6,9.6,33.8,9.4,34.1,9.4z M34.4,10.9v3.5h-0.7v-3.5H34.4z
		 M29.9,9.8h0.7v4h2.2v0.7h-2.9V9.8z M25.4,22.8c0,0.7,0,1.8-0.4,2.8c-0.2,0.5-0.6,1.2-1.2,1.6c-0.4,0.3-0.8,0.5-1.4,0.7
		c-0.6,0.2-1.4,0.2-2.4,0.2h-8.8c-1,0-1.7-0.1-2.4-0.2c-0.6-0.2-1-0.4-1.4-0.7c-0.6-0.5-1.1-1.2-1.2-1.6c-0.4-1-0.4-2.1-0.4-2.8V14
		c0-0.7,0-1.8,0.4-2.8c0.2-0.5,0.6-1.2,1.2-1.6c0.4-0.3,0.8-0.5,1.4-0.7c0.6-0.2,1.4-0.2,2.4-0.2h8.8c1,0,1.7,0.1,2.4,0.2
		c0.6,0.2,1,0.4,1.4,0.7c0.6,0.5,1.1,1.2,1.2,1.6c0.4,1,0.4,2.1,0.4,2.8V22.8z M36.4,27l-0.9-2.6h-3.7L30.9,27h-1.6l3.5-9.6h1.6
		L38,27H36.4z M36.8,14.5c-0.8,0-1.4-0.4-1.5-1h0.7c0.1,0.3,0.3,0.4,0.8,0.4c0.4,0,0.7-0.2,0.7-0.5c0-0.2-0.2-0.3-0.5-0.4l-0.6-0.1
		c-0.7-0.2-1-0.5-1-1c0-0.6,0.6-1.1,1.4-1.1c0.8,0,1.3,0.4,1.4,1h-0.7c-0.1-0.3-0.3-0.4-0.7-0.4c-0.4,0-0.7,0.2-0.7,0.5
		c0,0.2,0.2,0.3,0.6,0.4l0.6,0.1c0.7,0.2,1,0.4,1,1C38.3,14.1,37.7,14.5,36.8,14.5z M42.5,27.1c-1,0-1.8-0.4-2.2-1.2h0v3.5h-1.4V20
		h1.4v1.2h0c0.4-0.8,1.3-1.2,2.2-1.2c1.8,0,3,1.4,3,3.6C45.5,25.7,44.3,27.1,42.5,27.1z M46.5,14.5h-0.7v-3.5h0.7v0.6h0.1
		c0.2-0.4,0.5-0.6,1.1-0.6c0.8,0,1.2,0.5,1.2,1.3v2.3h-0.7v-2.1c0-0.6-0.2-0.9-0.8-0.9c-0.5,0-0.8,0.3-0.8,0.9V14.5z M50.3,27.1
		c-1,0-1.8-0.4-2.2-1.2h0v3.5h-1.4V20H48v1.2h0c0.4-0.8,1.3-1.2,2.2-1.2c1.8,0,3,1.4,3,3.6C53.2,25.7,52,27.1,50.3,27.1z M51.6,12.7
		c0-1.1,0.6-1.8,1.7-1.8c1,0,1.7,0.7,1.7,1.8c0,1.1-0.6,1.8-1.7,1.8C52.2,14.5,51.6,13.8,51.6,12.7z M55.8,27h-1.4v-9.6h1.4V27z
		 M56.6,12.4v2.1h-0.7v-3.5h0.7v0.6h0.1c0.2-0.4,0.5-0.6,1.1-0.6c0.8,0,1.2,0.5,1.2,1.3v2.3h-0.7v-2.1c0-0.6-0.2-0.9-0.8-0.9
		C56.9,11.5,56.6,11.8,56.6,12.4z M63.4,23.9h-5V24c0,1.2,0.8,2,1.9,2c0.8,0,1.4-0.4,1.6-1h1.4c-0.2,1.3-1.4,2.1-3,2.1
		c-2,0-3.3-1.4-3.3-3.6c0-2.2,1.3-3.6,3.2-3.6c1.9,0,3.2,1.3,3.2,3.5V23.9z M77.2,27h-1.4V20h0l-2.9,7h-1.1l-2.9-7h0V27h-1.4v-9.6
		h1.7l3.1,7.6h0.1l3.1-7.6h1.7V27z M84.8,27h-1.4v-1.2h0c-0.4,0.8-1.1,1.3-2.2,1.3c-1.5,0-2.5-1-2.5-2.6V20h1.4v4.2
		c0,1.1,0.5,1.6,1.5,1.6c1,0,1.7-0.7,1.7-1.8v-4h1.4V27z M88.9,27.1c-1.7,0-2.8-0.8-2.9-2.1h1.4c0.1,0.7,0.6,1,1.5,1
		c0.9,0,1.4-0.4,1.4-0.9c0-0.4-0.3-0.7-1-0.9L88.1,24c-1.3-0.3-1.9-1-1.9-1.9c0-1.2,1.1-2.1,2.7-2.1c1.6,0,2.7,0.9,2.7,2.1h-1.4
		c-0.1-0.6-0.6-1-1.4-1c-0.8,0-1.3,0.4-1.3,0.9c0,0.4,0.3,0.7,1.1,0.9l1.2,0.3c1.4,0.3,1.9,0.9,1.9,1.9
		C91.8,26.3,90.6,27.1,88.9,27.1z M94.5,27H93v-7h1.4V27z M93.8,19c-0.5,0-0.8-0.4-0.8-0.8c0-0.5,0.4-0.8,0.8-0.8
		c0.5,0,0.8,0.4,0.8,0.8C94.6,18.6,94.2,19,93.8,19z M99,27.1c-2,0-3.3-1.4-3.3-3.6c0-2.2,1.3-3.6,3.3-3.6c1.8,0,2.9,1.1,3,2.5h-1.4
		c-0.1-0.7-0.7-1.3-1.7-1.3c-1.1,0-1.8,0.9-1.8,2.4c0,1.5,0.7,2.4,1.9,2.4c0.9,0,1.5-0.4,1.6-1.3h1.4C101.9,26.1,100.7,27.1,99,27.1
		z"/>
</g>
</svg>
