<?xml version="1.0" encoding="utf-8"?>
<!-- Generator: Adobe Illustrator 24.0.1, SVG Export Plug-In . SVG Version: 6.00 Build 0)  -->
<svg version="1.1" id="Layer_1" xmlns="http://www.w3.org/2000/svg" xmlns:xlink="http://www.w3.org/1999/xlink" x="0px" y="0px"
	 viewBox="0 0 544.2 90.4" style="enable-background:new 0 0 544.2 90.4;" xml:space="preserve">
<style type="text/css">
	.st0{fill:#D9D9D9;}
	.st1{fill:#CCCCCC;}
</style>
<g>
	<g>
		<path class="st0" d="M125.1,34.9h31v12.3h-31v26.1h-13V6.1h47.7v12.3h-34.7V34.9z"/>
		<path class="st0" d="M215.4,73.3h-12.6v-3.9c-4,3.4-9.3,5.4-15.7,5.4c-12.1,0-23.4-10.7-23.4-26.5c0-15.8,11.3-26.6,23.4-26.6
			c6.5,0,11.7,2,15.7,5.5v-4h12.6V73.3z M202.8,48.3c0-9.2-6.8-15.1-13.5-15.1c-7.6,0-13.4,5.8-13.4,15.1c0,9.2,5.7,15,13.4,15
			C196,63.3,202.8,57.5,202.8,48.3z"/>
		<path class="st0" d="M261.7,22.9l-0.7,12.7h-2.8c-11.6,0-17,7.5-17,21.5v16.2h-12.6V23.2h12.6v9.1c3.8-5.8,9.4-9.8,17.1-9.8
			C259.6,22.5,260.6,22.5,261.7,22.9z"/>
		<path class="st0" d="M339.6,73.3L334.1,59h-28.2l-5.6,14.4h-14l27.7-67.2h12.1l27.7,67.2H339.6z M319.9,22.6l-9.4,24h18.6
			L319.9,22.6z"/>
		<path class="st0" d="M411.9,73.4h-11.4l-9.4-29.5l-9.4,29.5h-11.4l-15.8-50.2h12.5l9.4,30.8l9.7-30.8h9.8l9.7,30.9l9.4-30.9h12.5
			L411.9,73.4z"/>
		<path class="st0" d="M482.8,73.3h-12.6v-3.9c-4,3.4-9.3,5.4-15.7,5.4c-12.1,0-23.4-10.7-23.4-26.5c0-15.8,11.3-26.6,23.4-26.6
			c6.5,0,11.7,2,15.7,5.5v-4h12.6V73.3z M470.2,48.3c0-9.2-6.8-15.1-13.5-15.1c-7.6,0-13.4,5.8-13.4,15.1c0,9.2,5.7,15,13.4,15
			C463.4,63.3,470.2,57.5,470.2,48.3z"/>
		<path class="st0" d="M516.6,90.4h-14l7.6-18.7l-19.8-48.6h14l12.6,32l13.2-32h14L516.6,90.4z"/>
	</g>
	<g>
		<g>
			<g>
				<path class="st1" d="M13.7,42.5l1.8,0.4c-0.9,3.4-3.8,5.5-7.4,5.5c-4.5,0-8-3.7-8-8.4c0-4.7,3.5-8.4,8-8.4
					c3.6,0,6.4,2.1,7.4,5.4l-1.8,0.5c-0.8-2.6-2.9-4.1-5.6-4.1c-3.5,0-6.2,2.9-6.2,6.6c0,3.7,2.7,6.6,6.2,6.6
					C10.8,46.6,12.9,45.1,13.7,42.5z"/>
				<path class="st1" d="M29.5,48.1h-1.8v-1.9c-1,1.4-2.6,2.2-4.5,2.2c-3,0-5.7-2.5-5.7-6.3c0-3.8,2.7-6.3,5.7-6.3
					c1.9,0,3.5,0.8,4.5,2.2v-1.9h1.8V48.1z M27.8,42.1c0-2.9-2.1-4.7-4.2-4.7c-2.4,0-4.2,1.8-4.2,4.7c0,2.8,1.9,4.6,4.2,4.6
					C25.7,46.8,27.8,45,27.8,42.1z"/>
				<path class="st1" d="M34.4,44.4c0.2,1.6,1.5,2.4,3.3,2.4c1.6,0,2.7-0.8,2.7-2c0-1-0.7-1.5-1.9-1.7L36,42.5c-1.9-0.4-3-1.4-3-3.1
					c0-2.2,1.7-3.6,4.3-3.6c2.6,0,4.2,1.4,4.6,3.3l-1.7,0.4c-0.2-1.3-1.3-2.2-3-2.2c-1.6,0-2.5,0.8-2.5,2c0,0.9,0.6,1.4,1.7,1.6
					l2.7,0.6c1.7,0.4,2.9,1.3,2.9,3.1c0,2.4-1.9,3.7-4.6,3.7c-2.6,0-4.7-1.2-5-3.5L34.4,44.4z"/>
				<path class="st1" d="M52.1,47.5c-0.9,0.7-1.7,0.9-2.6,0.9c-2.3,0-3.8-1.4-3.8-4v-6.7h-2.5v-1.6h2.5v-3.8h1.8v3.8h4.1v1.6h-4.1
					v6.5c0,1.6,0.8,2.4,2.1,2.4c0.6,0,1.4-0.3,1.9-0.7L52.1,47.5z"/>
				<path class="st1" d="M61.5,36.1l-0.1,1.8c-0.2,0-0.5,0-0.7,0c-3,0-4.6,2.4-4.6,5.6v4.6h-1.8v-12h1.8v2.9
					c0.9-1.8,2.5-3.1,4.6-3.1C60.9,36,61.2,36,61.5,36.1z"/>
				<path class="st1" d="M74.6,42.1c0,3.7-2.7,6.3-6,6.3c-3.4,0-6-2.6-6-6.3c0-3.7,2.7-6.2,6-6.2C71.9,35.9,74.6,38.4,74.6,42.1z
					 M72.8,42.1c0-2.7-2-4.6-4.3-4.6c-2.4,0-4.3,1.9-4.3,4.6c0,2.8,2,4.7,4.3,4.7C70.9,46.8,72.8,44.9,72.8,42.1z"/>
			</g>
		</g>
		<g>
			<g>
				<path class="st1" d="M12.1,73.1H2.3V58.2H4v13.3h8.1V73.1z"/>
				<path class="st1" d="M24.3,68h-9c0.1,2.5,1.9,3.9,3.7,3.9c1.5,0,2.8-0.6,3.6-2.4l1.4,0.4c-0.8,2.3-2.6,3.5-5,3.5
					c-2.8,0-5.3-2.3-5.3-5.8c0-3.5,2.5-5.8,5.4-5.8c2.8,0,5,2.2,5.1,5.5V68z M15.4,66.7h7.3c-0.3-2.2-1.8-3.3-3.5-3.3
					C17.5,63.4,15.7,64.6,15.4,66.7z"/>
				<path class="st1" d="M33.4,72.6c-0.8,0.6-1.6,0.9-2.4,0.9c-2.1,0-3.5-1.3-3.5-3.7v-6.1h-2.3v-1.4h2.3v-3.5h1.6v3.5h3.7v1.4h-3.7
					v6c0,1.4,0.8,2.2,1.9,2.2c0.6,0,1.2-0.3,1.8-0.7L33.4,72.6z"/>
				<path class="st1" d="M41.7,72.6c-0.8,0.6-1.6,0.9-2.4,0.9c-2.1,0-3.5-1.3-3.5-3.7v-6.1h-2.3v-1.4h2.3v-3.5h1.6v3.5h3.7v1.4h-3.7
					v6c0,1.4,0.8,2.2,1.9,2.2c0.6,0,1.2-0.3,1.8-0.7L41.7,72.6z"/>
				<path class="st1" d="M53.5,66.6v6.6h-1.6v-6.3c0-2.1-1.2-3.4-2.9-3.4c-2.2,0-3.6,1.6-3.6,4.4v5.3h-1.6v-11h1.6V64
					c0.8-1.3,2.2-2.1,3.9-2.1C51.9,61.9,53.5,63.8,53.5,66.6z"/>
				<path class="st1" d="M66.6,68h-9c0.1,2.5,1.9,3.9,3.7,3.9c1.5,0,2.8-0.6,3.6-2.4l1.4,0.4c-0.8,2.3-2.6,3.5-5,3.5
					c-2.8,0-5.3-2.3-5.3-5.8c0-3.5,2.5-5.8,5.4-5.8c2.8,0,5,2.2,5.1,5.5V68z M57.7,66.7H65c-0.3-2.2-1.8-3.3-3.5-3.3
					C59.8,63.4,58,64.6,57.7,66.7z"/>
				<path class="st1" d="M75.9,62.1l-0.1,1.6c-0.2,0-0.4,0-0.6,0c-2.8,0-4.2,2.2-4.2,5.2v4.2h-1.6v-11H71v2.7
					c0.8-1.6,2.3-2.8,4.2-2.8C75.4,62,75.6,62,75.9,62.1z"/>
			</g>
		</g>
		<g>
			<g>
				<path class="st1" d="M14.2,12.3l1.8,0.5c-1,3.5-4,5.7-7.6,5.7C3.7,18.5,0,14.6,0,9.7s3.7-8.8,8.3-8.8C12,0.9,15,3.1,16,6.5
					l-1.8,0.6c-0.8-2.7-3-4.3-5.8-4.3c-3.6,0-6.4,3-6.4,6.9c0,3.9,2.8,6.9,6.4,6.9C11.1,16.6,13.3,15.1,14.2,12.3z"/>
				<path class="st1" d="M30.2,18.1h-1.8v-2c-1,1.5-2.5,2.3-4.5,2.3c-2.9,0-4.7-2.1-4.7-5.3V5.7H21v7.1c0,2.3,1.3,3.9,3.3,3.9
					c2.5,0,4.1-1.7,4.1-5v-6h1.8V18.1z"/>
				<path class="st1" d="M45.7,18.1h-1.8v-2c-1.1,1.5-2.7,2.3-4.7,2.3c-3.1,0-5.9-2.6-5.9-6.5s2.8-6.5,5.9-6.5c2,0,3.6,0.8,4.7,2.3
					V0h1.8V18.1z M43.9,11.9c0-3-2.2-4.8-4.4-4.8c-2.4,0-4.4,1.9-4.4,4.8c0,2.9,2,4.8,4.4,4.8C41.7,16.8,43.9,14.9,43.9,11.9z"/>
				<path class="st1" d="M60.7,12.3H50.6c0.2,2.8,2.2,4.5,4.2,4.5c1.7,0,3.2-0.7,4-2.7l1.6,0.4c-0.9,2.6-3,4-5.7,4
					c-3.1,0-6-2.5-6-6.5c0-4,2.9-6.6,6.1-6.6c3.2,0,5.7,2.5,5.8,6.2V12.3z M50.7,10.9h8.2c-0.3-2.4-2-3.8-4-3.8
					C53,7.1,51,8.4,50.7,10.9z"/>
				<path class="st1" d="M72.9,18.1l-6.4-5.5h-0.8v5.5h-1.8V0h1.8v10.8h0.9l5.7-5h2.4l-6.7,6l7.5,6.4H72.9z"/>
			</g>
		</g>
	</g>
</g>
</svg>
